<?xml version="1.0" standalone="no"?>
<!DOCTYPE svg PUBLIC "-//W3C//DTD SVG 1.1//EN" "http://www.w3.org/Graphics/SVG/1.1/DTD/svg11.dtd" >
<svg xmlns="http://www.w3.org/2000/svg">
<metadata></metadata>
<defs>
<font id="absarasanstf-lightitalicRg" horiz-adv-x="1034" >
<font-face units-per-em="2048" ascent="1638" descent="-410" />
<missing-glyph horiz-adv-x="491" />
<glyph horiz-adv-x="2048" />
<glyph horiz-adv-x="2048" />
<glyph unicode="&#xd;" horiz-adv-x="2048" />
<glyph unicode=" "  horiz-adv-x="491" />
<glyph unicode="&#x09;" horiz-adv-x="491" />
<glyph unicode="&#xa0;" horiz-adv-x="491" />
<glyph unicode="!" horiz-adv-x="487" d="M35 74q0 40 28 67t68 27t67 -27t27 -67t-27 -67t-67 -27t-68 27t-28 67zM133 373l248 1024h168l-303 -1024h-113z" />
<glyph unicode="&#x22;" horiz-adv-x="604" d="M264 1026l88 449h150l-152 -449h-86zM524 1026l86 449h152l-152 -449h-86z" />
<glyph unicode="#" d="M-16 412l22 102h215l178 404h-194l24 106h217l166 373h109l-164 -373h205l166 373h108l-162 -373h197l-22 -106h-224l-178 -404h201l-25 -102h-221l-180 -412h-113l183 412h-205l-181 -412h-112l182 412h-192zM332 514h207l178 404h-207z" />
<glyph unicode="$" d="M63 219l41 129q155 -94 347 -94q119 0 186.5 53.5t67.5 141.5q0 47 -24.5 88.5t-63 73t-86 62t-94.5 62t-85.5 65t-63 79t-24.5 96.5q0 115 76.5 194.5t216.5 100.5l41 151h86l-39 -145q27 2 55 2q35 0 60 -2l39 145h86l-41 -153q62 -6 125 -21l-31 -129q-137 41 -293 41 q-112 0 -172.5 -44t-60.5 -120q0 -39 24.5 -74.5t63 -64.5t85.5 -58.5t94 -63t85.5 -71t63 -90t24.5 -112.5q0 -123 -80.5 -209.5t-241.5 -110.5l-43 -161h-88l45 157h-22q-50 0 -90 4l-45 -161h-86l49 176q-123 24 -187 63z" />
<glyph unicode="%" horiz-adv-x="1462" d="M12 0l1305 1397h117l-1303 -1397h-119zM178 963q0 110 39.5 213t118.5 173t180 70q107 0 163 -62t56 -165q0 -112 -40.5 -216t-120 -173.5t-179.5 -69.5q-108 0 -162.5 62t-54.5 168zM289 965q0 -63 28.5 -99.5t83.5 -36.5t99.5 36.5t70.5 92.5t40 115.5t14 112.5 q0 64 -29.5 100.5t-85.5 36.5q-54 0 -98 -36.5t-70 -93t-39.5 -116t-13.5 -112.5zM721 209q0 110 40 213.5t119.5 173.5t180.5 70q107 0 163 -62t56 -166q0 -112 -40.5 -215.5t-120 -173t-179.5 -69.5q-109 0 -164 62t-55 167zM831 211q0 -63 29 -99t86 -36q54 0 98 36.5 t70 92t39.5 115t13.5 112.5q0 65 -28 101t-84 36q-54 0 -98.5 -37t-71 -93t-40.5 -115.5t-14 -112.5z" />
<glyph unicode="&#x26;" horiz-adv-x="1474" d="M111 369q0 113 38 219.5t101.5 184t148.5 124.5t176 47q81 0 129 -40.5t48 -112.5q0 -85 -62 -138l449 111q-3 135 -61.5 248.5t-157.5 156.5l106 66q100 -50 164.5 -168.5t71.5 -271.5l206 51v-107l-208 -51q-10 -104 -46.5 -205.5t-100 -192.5t-146.5 -160t-194 -109.5 t-234 -40.5q-215 0 -321.5 101.5t-106.5 287.5zM250 381q0 -285 297 -285q120 0 223.5 45t176.5 122t120 177.5t63 214.5l-765 -186l-15 109q156 29 223.5 69.5t67.5 114.5q0 37 -23 58.5t-61 21.5q-77 0 -148 -63t-115 -170t-44 -228z" />
<glyph unicode="'" horiz-adv-x="344" d="M264 1026l88 449h150l-152 -449h-86z" />
<glyph unicode="(" horiz-adv-x="698" d="M92 86q0 135 25.5 278t73.5 284.5t122.5 274t166.5 241.5t212.5 191.5t253.5 121.5l43 -105q-144 -51 -269 -154.5t-213.5 -236t-152 -288.5t-94.5 -316t-31 -314q0 -177 58 -320.5t186 -221.5l-78 -96q-69 33 -122 88t-86.5 119t-55.5 142.5t-30.5 154t-8.5 157.5z" />
<glyph unicode=")" horiz-adv-x="698" d="M-338 -471q145 51 270 154.5t214 236t152.5 288.5t94.5 316t31 314q0 176 -58.5 320t-185.5 222l76 97q85 -41 146.5 -114t94.5 -164.5t47.5 -185.5t14.5 -198q0 -115 -18 -237t-55 -245t-89.5 -239.5t-124.5 -223t-156.5 -193.5t-190 -153t-220.5 -99z" />
<glyph unicode="*" horiz-adv-x="716" d="M193 1188l43 129l190 -94l57 45l-30 207h135l-31 -207l59 -45l191 94l41 -127l-201 -35l-26 -74l145 -149l-111 -80l-96 184h-74l-98 -186l-108 80l145 149l-27 72z" />
<glyph unicode="+" horiz-adv-x="1024" d="M82 434v125h367v395h129v-395h366v-125h-366v-411h-129v411h-367z" />
<glyph unicode="," horiz-adv-x="415" d="M-268 -356q166 179 238 293.5t114 236.5l160 -12q-56 -139 -146 -266t-264 -293z" />
<glyph unicode="-" horiz-adv-x="694" d="M96 469l35 119h473l-35 -119h-473z" />
<glyph unicode="." horiz-adv-x="421" d="M18 80q0 42 31 72t74 30q42 0 72 -30t30 -72t-30.5 -72.5t-71.5 -30.5q-43 0 -74 30t-31 73z" />
<glyph unicode="/" horiz-adv-x="710" d="M-217 0l1063 1448h162l-1063 -1448h-162z" />
<glyph unicode="0" d="M53 334q0 155 35 319q19 93 46 182t64.5 177t86 160.5t105.5 129t128 88t148 31.5q153 0 233 -98t80 -262q0 -119 -29 -283q-20 -116 -52.5 -224.5t-83.5 -214.5t-114 -184.5t-148.5 -126.5t-182.5 -48q-160 0 -238 94t-78 260zM197 322q0 -104 43 -160t141 -56 q63 0 122 43t105 112.5t85.5 162.5t66 187.5t45.5 193.5q31 158 31 272q0 111 -46 163t-141 52q-60 0 -118 -41t-103.5 -109t-85.5 -158.5t-68 -185.5t-47 -194q-30 -156 -30 -282z" />
<glyph unicode="1" d="M-16 0l32 131h342l306 1129l-336 -64l14 125l360 82h144l-342 -1272h276l-47 -131h-749z" />
<glyph unicode="2" d="M-123 0l33 121q226 163 382 287.5t253.5 217.5t150.5 171.5t71.5 138t18.5 129.5q0 103 -67 162t-174 59q-153 0 -281 -78l6 152q122 61 289 61q176 0 279.5 -93.5t103.5 -246.5q0 -142 -71.5 -272t-244 -290.5t-485.5 -387.5h629l-47 -131h-846z" />
<glyph unicode="3" d="M-84 115q192 3 356 48.5t270.5 136t106.5 208.5q0 85 -63.5 132.5t-194.5 47.5h-164l37 131h248q110 36 179 108.5t69 170.5q0 90 -57 141t-150 51q-141 0 -262 -67l8 145q122 53 276 53q151 0 243.5 -81t92.5 -222q0 -127 -83 -220t-212 -132l-2 -8q90 -20 141.5 -84.5 t51.5 -159.5q0 -123 -73 -224.5t-197 -166.5t-281 -101.5t-330 -39.5z" />
<glyph unicode="4" d="M6 383l23 135l772 905l151 -22l-768 -893h422l123 463h139l-123 -463h181l-33 -125h-182l-105 -383h-137l102 383h-565z" />
<glyph unicode="5" d="M-6 115q306 0 493 105.5t187 273.5q0 116 -79.5 169.5t-213.5 53.5q-102 0 -217 -23l272 703h615l-56 -131h-469l-166 -428q24 4 76 4q78 0 145.5 -19t124 -58t89 -106t32.5 -155q0 -152 -109.5 -272t-296 -185t-415.5 -65z" />
<glyph unicode="6" d="M61 358q0 197 76.5 385t207.5 333t316.5 238.5t391.5 106.5l18 -131q-152 -13 -288 -69.5t-239.5 -144.5t-179.5 -199t-115.5 -237.5t-39.5 -256.5q0 -272 209 -272q133 0 214 105.5t81 262.5q0 98 -54 150.5t-145 52.5q-105 0 -176 -55l12 127q82 53 211 53 q124 0 211.5 -83t87.5 -230q0 -138 -54.5 -254t-161.5 -188t-247 -72q-149 0 -242.5 100t-93.5 278z" />
<glyph unicode="7" d="M-59 4l958 1262h-641l10 131h826l-27 -133l-971 -1274z" />
<glyph unicode="8" d="M23 285q0 288 325 428l88 -70q-125 -51 -198.5 -138.5t-73.5 -193.5q0 -100 61.5 -153.5t184.5 -53.5t199.5 67t76.5 169q0 60 -23.5 114.5t-61.5 97.5t-83.5 84.5t-91 84t-83.5 87.5t-61.5 102.5t-23.5 121.5q0 176 113.5 282.5t298.5 106.5q148 0 234.5 -73.5 t86.5 -204.5q0 -135 -85 -235t-214 -144l-92 61q107 39 182.5 119t75.5 182q0 84 -57 129t-150 45q-116 0 -184 -58.5t-68 -168.5q0 -56 24 -108.5t62.5 -96t84.5 -86.5t92.5 -88t85 -92.5t62.5 -107.5t24 -125q0 -180 -124 -284.5t-323 -104.5q-173 0 -268.5 84t-95.5 221z " />
<glyph unicode="9" d="M-31 111q152 13 288 69.5t239.5 144.5t179.5 199t115.5 237.5t39.5 256.5q0 272 -208 272q-133 0 -215 -106t-82 -262q0 -98 54.5 -150.5t143.5 -52.5q107 0 178 55l-12 -127q-85 -53 -213 -53q-124 0 -210.5 83t-86.5 230q0 138 54.5 254t161 188t245.5 72 q150 0 244 -100t94 -279q0 -197 -76.5 -385t-207 -332.5t-316 -238t-391.5 -106.5z" />
<glyph unicode=":" horiz-adv-x="421" d="M18 80q0 42 31 72t74 30q42 0 72 -30t30 -72t-30.5 -72.5t-71.5 -30.5q-43 0 -74 30t-31 73zM195 778q0 43 29.5 73t72.5 30t72.5 -30t29.5 -73t-29.5 -72.5t-72.5 -29.5t-72.5 29.5t-29.5 72.5z" />
<glyph unicode=";" horiz-adv-x="421" d="M-236 -356q166 180 238.5 294.5t114.5 235.5l159 -12q-56 -139 -145.5 -266t-263.5 -293zM195 778q0 43 29.5 73t72.5 30t72.5 -30t29.5 -73t-29.5 -72.5t-72.5 -29.5t-72.5 29.5t-29.5 72.5z" />
<glyph unicode="&#x3c;" horiz-adv-x="1024" d="M86 506l602 420h199l-604 -416l608 -432h-205z" />
<glyph unicode="=" horiz-adv-x="1024" d="M121 240v120h788v-120h-788zM121 641v119h788v-119h-788z" />
<glyph unicode="&#x3e;" horiz-adv-x="1024" d="M131 926h205l602 -428l-604 -420h-199l604 416z" />
<glyph unicode="?" horiz-adv-x="638" d="M39 74q0 40 27 67t67 27t68 -27t28 -67t-28 -67t-68 -27t-67 27t-27 67zM164 379q207 323 272.5 457t65.5 235q0 104 -63.5 165.5t-172.5 61.5q-65 0 -98 -10l14 119q54 8 101 8q149 0 248.5 -84.5t99.5 -234.5q0 -85 -24.5 -162.5t-100 -212t-230.5 -367.5z" />
<glyph unicode="@" horiz-adv-x="1746" d="M96 276q0 198 71.5 374.5t194.5 304t296.5 202t369.5 74.5q176 0 314.5 -61.5t222.5 -187t84 -298.5q0 -144 -45.5 -267t-121 -205t-172.5 -128.5t-200 -46.5q-98 0 -158 14q0 48 17 139h-8l-201 -137q-51 -35 -94 -35q-72 0 -116 63.5t-44 186.5q0 129 44.5 247 t113 196.5t150 125t155.5 46.5q54 0 282 -43l-155 -586q-19 -70 -19 -117q25 -4 56 -4q78 0 152 39.5t131 109t91.5 173.5t34.5 223q0 220 -137.5 338.5t-378.5 118.5q-175 0 -328 -66.5t-260.5 -181t-169 -272.5t-61.5 -336q0 -225 116 -350.5t322 -125.5q77 0 160 13 t131 32v-102q-45 -15 -132 -27t-159 -12q-133 0 -238 42.5t-172.5 118.5t-103 179.5t-35.5 228.5zM629 254q0 -42 12 -94l49 -29q158 68 295 152l125 471q-106 22 -160 22q-38 0 -82 -24.5t-86 -72.5t-76.5 -110t-55.5 -145t-21 -170z" />
<glyph unicode="A" horiz-adv-x="1226" d="M-61 0l837 1397h144l104 -1389l-141 -14l-33 477h-477l-277 -471h-157zM449 594h393l-35 522q-2 29 -2 92h-12q-8 -27 -35 -84z" />
<glyph unicode="B" horiz-adv-x="1189" d="M86 0l377 1397h65q4 0 46 2t97 4t89 2q158 0 256 -80.5t98 -222.5q0 -138 -77 -238.5t-210 -142.5v-10q102 -30 161 -104.5t59 -188.5q0 -188 -137.5 -306t-362.5 -118q-65 0 -195.5 3t-175.5 3h-90zM260 125q197 -10 414 -10q109 38 167 116t58 185q0 241 -328 241h-168 zM434 778h293q244 78 244 301q0 95 -60.5 149t-175.5 54q-92 0 -166 -4z" />
<glyph unicode="C" horiz-adv-x="1314" d="M160 498q0 166 53 319t144.5 270.5t214 204t262.5 129.5q104 -5 254 -29.5t235 -52.5l-31 -137q-94 30 -235 58t-223 32q-229 -87 -377 -303t-148 -469q0 -109 31.5 -190.5t86 -127.5t120.5 -68.5t143 -22.5q109 0 228 33.5t210 91.5l-16 -158q-204 -98 -450 -98 q-100 0 -188 30.5t-159.5 91t-113 162.5t-41.5 234z" />
<glyph unicode="D" horiz-adv-x="1437" d="M86 0l375 1397h63q40 0 171 5t179 5q242 0 376 -140t134 -393q0 -106 -25.5 -213.5t-73 -205.5t-118.5 -183t-157 -147.5t-194.5 -98.5t-225.5 -36q-55 0 -214 5t-190 5h-100zM268 131q212 -16 443 -16q233 66 378.5 278t145.5 486q0 197 -105 300t-290 103 q-147 0 -267 -8z" />
<glyph unicode="E" horiz-adv-x="1185" d="M86 0l375 1397h710l-34 -131h-564l-131 -484h529l-33 -131h-530l-140 -520h695l-19 -131h-858z" />
<glyph unicode="F" horiz-adv-x="1097" d="M86 0l375 1397h704l-35 -131h-557l-147 -547h543l-35 -133h-543l-158 -586h-147z" />
<glyph unicode="G" horiz-adv-x="1396" d="M160 504q0 217 92 410t244.5 323.5t337.5 183.5q105 -2 270 -23.5t274 -49.5l-30 -138q-102 25 -260 50.5t-254 31.5q-235 -92 -380 -306t-145 -462q0 -108 30 -189.5t84 -129t122.5 -71t150.5 -23.5q71 0 154 14t137 37l111 407h145l-135 -506q-182 -83 -444 -83 q-230 0 -367 139.5t-137 384.5z" />
<glyph unicode="H" horiz-adv-x="1419" d="M86 0l375 1397h147l-164 -609h686l164 609h146l-373 -1397h-147l178 664h-688l-177 -664h-147z" />
<glyph unicode="I" horiz-adv-x="587" d="M86 0l375 1397h147l-375 -1397h-147z" />
<glyph unicode="J" horiz-adv-x="612" d="M-172 -213q110 13 185 73.5t110 188.5l362 1348h146l-369 -1379q-44 -168 -149 -261.5t-260 -100.5z" />
<glyph unicode="K" horiz-adv-x="1308" d="M86 0l375 1397h147l-375 -1397h-147zM494 698v99l729 618l178 -22l-762 -639l559 -748l-154 -18z" />
<glyph unicode="L" horiz-adv-x="962" d="M86 0l375 1397h147l-340 -1266h635l-18 -131h-799z" />
<glyph unicode="M" horiz-adv-x="1792" d="M43 0l465 1397h149l146 -1106q6 -43 6 -103h12q17 48 53 103l746 1106h152l-281 -1397h-143l213 1044q9 51 24 95h-12q-20 -51 -55 -109l-684 -1030h-136l-129 1028q-6 46 -6 111h-10q-10 -61 -23 -97l-346 -1042h-141z" />
<glyph unicode="N" horiz-adv-x="1492" d="M86 0l375 1397h145l424 -1094q18 -50 27 -94h12q3 48 16 100l291 1088h137l-372 -1395l-129 -16l-437 1122q-18 44 -24 96h-12q-4 -30 -17 -90l-299 -1114h-137z" />
<glyph unicode="O" horiz-adv-x="1460" d="M160 532q0 128 32.5 255t97.5 241t154 202t211.5 139.5t259.5 51.5q230 0 361 -148t131 -405q0 -128 -32.5 -255t-98 -241t-154.5 -201.5t-210.5 -139t-258.5 -51.5q-234 0 -363.5 145t-129.5 407zM309 522q0 -192 94 -304t263 -112q165 0 302 109t213 287.5t76 382.5 q0 188 -94.5 298.5t-259.5 110.5q-167 0 -304 -105.5t-213.5 -282t-76.5 -384.5z" />
<glyph unicode="P" horiz-adv-x="1097" d="M86 0l375 1397h71q16 0 106 3t118 3q107 0 188.5 -34.5t131.5 -111t50 -188.5q0 -142 -80.5 -254t-218.5 -173t-309 -64l-20 133q226 0 352.5 93t126.5 259q0 111 -69.5 163t-176.5 52q-76 0 -158 -4l-340 -1274h-147z" />
<glyph unicode="Q" horiz-adv-x="1447" d="M123 -141q249 40 459 136t355.5 229t226.5 300t81 346q0 197 -94.5 310.5t-253.5 113.5q-151 0 -281 -98t-204 -256.5t-74 -335.5q0 -145 76.5 -224t212.5 -79q51 0 100 12l-22 -123q-41 -10 -111 -10q-187 0 -296.5 117t-109.5 305q0 114 30.5 229.5t92.5 221.5 t147.5 188t205 131t256.5 49q219 0 347 -145.5t128 -388.5q0 -223 -109.5 -431t-323.5 -374.5t-501 -253.5v-10q140 -15 308 -77t265 -136l-71 -90q-153 91 -351.5 151t-400.5 60h-76z" />
<glyph unicode="R" horiz-adv-x="1224" d="M86 0l375 1397h61q17 0 120.5 3t135.5 3q161 0 255.5 -86t94.5 -238q0 -157 -91.5 -275t-272.5 -167l323 -635l-153 -10l-313 629l-224 14l-168 -635h-143zM430 758l252 -21q150 28 225.5 116.5t75.5 211.5q0 110 -65 164.5t-181 54.5q-46 0 -168 -4z" />
<glyph unicode="S" horiz-adv-x="1030" d="M74 80l49 127q137 -101 332 -101q122 0 198 65t76 183q0 56 -24.5 108.5t-64 96t-87.5 86t-96 85.5t-87.5 87.5t-64 99t-24.5 113.5q0 178 128.5 280.5t331.5 102.5q143 0 269 -35l-25 -135q-121 41 -272 41q-138 0 -212.5 -61t-74.5 -168q0 -47 24.5 -93.5t64 -87 t87.5 -83t96 -89t87.5 -95.5t64 -112.5t24.5 -132.5q0 -173 -120.5 -277.5t-309.5 -104.5q-243 0 -370 100z" />
<glyph unicode="T" horiz-adv-x="1011" d="M223 1266l31 131h981l-41 -131h-403l-338 -1266h-148l340 1266h-422z" />
<glyph unicode="U" horiz-adv-x="1429" d="M207 346q0 102 39 246l215 805h147l-221 -822q-33 -129 -33 -217q0 -111 79 -177t216 -66q165 0 260 79t148 273l250 930h141l-252 -940q-65 -248 -196.5 -362.5t-360.5 -114.5q-119 0 -215.5 40.5t-156.5 125t-60 200.5z" />
<glyph unicode="V" horiz-adv-x="1118" d="M248 1391l147 12l76 -1079q2 -27 2 -119h12q25 65 56 117l628 1075h164l-835 -1397h-140z" />
<glyph unicode="W" horiz-adv-x="1906" d="M252 1391l147 12l37 -1063l-4 -121h14q18 54 54 125l577 1053h148l71 -1059v-121h15q19 76 45 127l561 1053h160l-758 -1397h-143l-68 1098v96h-10q-23 -55 -45 -98l-602 -1096h-144z" />
<glyph unicode="X" horiz-adv-x="1257" d="M-74 0l672 743l-299 646l156 16l254 -578l503 570h181l-621 -678l324 -711l-156 -16l-276 637l-558 -629h-180z" />
<glyph unicode="Y" horiz-adv-x="1001" d="M238 1389l151 16l143 -645q15 -67 15 -101h10q16 52 51 101l451 637h174l-635 -875l-139 -522h-148l140 520z" />
<glyph unicode="Z" horiz-adv-x="1193" d="M-51 0l12 125l1112 1141h-772l29 131h946v-113l-1122 -1153h876l-24 -131h-1057z" />
<glyph unicode="[" horiz-adv-x="620" d="M-68 -526l525 1964h395l-35 -131h-246l-454 -1702h245l-36 -131h-394z" />
<glyph unicode="\" horiz-adv-x="710" d="M190 1448h144l280 -1448h-139z" />
<glyph unicode="]" horiz-adv-x="620" d="M-274 -526l34 131h246l457 1702h-246l35 131h395l-524 -1964h-397z" />
<glyph unicode="^" horiz-adv-x="1024" d="M174 555l461 610h110l146 -610l-105 -12l-122 495l-383 -495z" />
<glyph unicode="_" horiz-adv-x="1024" d="M0 -90h1024v-121h-1024v121z" />
<glyph unicode="`" horiz-adv-x="1024" d="M303 1421h156l159 -403h-102z" />
<glyph unicode="a" horiz-adv-x="952" d="M76 252q0 115 32 222t85 187.5t119.5 141t137.5 92t136 31.5q53 0 303 -47l-170 -643q-33 -125 -33 -236h-127q0 65 21 168h-11l-256 -166q-22 -14 -36 -18t-39 -4q-75 0 -118.5 68.5t-43.5 203.5zM211 238q0 -50 14 -105l54 -29q169 74 315 164l139 516q-131 27 -168 27 q-42 0 -90.5 -27t-95 -79t-84.5 -120.5t-61 -159.5t-23 -187z" />
<glyph unicode="b" horiz-adv-x="972" d="M57 25l379 1425l135 10l-192 -717h8l256 156q28 18 42 22.5t40 4.5q75 0 120.5 -69t45.5 -204q0 -142 -49.5 -271.5t-125.5 -215t-165.5 -136t-171.5 -50.5q-32 0 -100 10zM213 121l102 -17q45 -10 84 -10q55 0 117 43.5t115.5 117t89 183.5t35.5 230q0 46 -15 104 l-53 29q-65 -27 -171.5 -78t-164.5 -84z" />
<glyph unicode="c" horiz-adv-x="813" d="M90 301q0 140 43 260t114 198.5t162 122.5t187 44q119 0 184 -29l-28 -123q-85 31 -174 31q-107 0 -188.5 -69.5t-123 -180.5t-41.5 -242q0 -100 40 -156.5t112 -56.5q50 0 100 22.5t180 110.5l43 -92q-141 -101 -209.5 -131t-138.5 -30q-119 0 -190.5 85.5t-71.5 235.5z " />
<glyph unicode="d" horiz-adv-x="974" d="M90 252q0 115 32 222t85 187.5t119.5 141t137.5 92t136 31.5q39 0 193 -29l147 553l135 10l-330 -1224q-30 -113 -30 -236h-127q0 80 18 168h-10l-268 -166q-24 -14 -38 -18t-38 -4q-75 0 -118.5 68.5t-43.5 203.5zM225 238q0 -52 15 -105l53 -29q165 67 332 162l135 514 q-138 31 -180 31q-53 0 -115 -43.5t-115.5 -116.5t-89 -183.5t-35.5 -229.5z" />
<glyph unicode="e" horiz-adv-x="843" d="M90 301q0 136 44 256.5t113.5 199t153 124t164.5 45.5q104 0 160.5 -52t56.5 -149q0 -132 -131 -224.5t-364 -92.5h-56q-6 -55 -6 -95q0 -100 40 -156.5t112 -56.5q48 0 104 26t195 120l43 -94q-150 -105 -224 -138.5t-143 -33.5q-119 0 -190.5 85.5t-71.5 235.5z M250 502h39q168 0 264 57t96 160q0 51 -29 76.5t-77 25.5q-85 0 -169.5 -85.5t-123.5 -233.5z" />
<glyph unicode="f" horiz-adv-x="636" d="M-225 -371q124 28 197.5 129t138.5 342l182 684h-146l29 115h148l30 115q36 129 87.5 219.5t115 139.5t129 70t143.5 23l19 -123q-75 -1 -128.5 -19.5t-102 -67.5t-86.5 -135.5t-72 -221.5h233l-30 -115h-236l-186 -718q-68 -260 -169 -390t-253 -161z" />
<glyph unicode="g" horiz-adv-x="968" d="M-123 -494l39 119q119 -53 217 -53q292 0 393 367l64 229h-10l-228 -150q-50 -34 -106 -34q-78 0 -124 67t-46 201q0 115 32 222t85 187.5t119.5 141t137.5 92t136 31.5t317 -49l-237 -914q-135 -510 -547 -510q-61 0 -129.5 14.5t-112.5 38.5zM209 238q0 -59 14 -99 l56 -30q177 75 335 163l134 514q-136 25 -183 25q-42 0 -91 -27t-95.5 -79t-84.5 -120.5t-61.5 -159.5t-23.5 -187z" />
<glyph unicode="h" horiz-adv-x="993" d="M47 0l385 1450l137 10l-190 -708h6l231 139q58 35 127 35q62 0 108 -43t46 -99q0 -55 -23 -143l-108 -403q-33 -123 -33 -238h-133q0 118 45 285l123 460l-45 56q-61 -9 -169.5 -56.5t-203.5 -107.5l-170 -637h-133z" />
<glyph unicode="i" horiz-adv-x="479" d="M47 0l238 897l137 10l-242 -907h-133zM346 1237q0 35 23.5 59.5t58.5 24.5t59.5 -24.5t24.5 -59.5q0 -36 -24.5 -62t-59.5 -26t-58.5 26t-23.5 62z" />
<glyph unicode="j" horiz-adv-x="487" d="M-283 -440q111 3 186.5 66t114.5 212l277 1063l137 10l-280 -1075q-52 -198 -155 -291.5t-222 -93.5q-9 0 -45 4zM354 1237q0 35 23.5 59.5t58.5 24.5t59.5 -24.5t24.5 -59.5q0 -36 -24.5 -62t-59.5 -26t-58.5 26t-23.5 62z" />
<glyph unicode="k" horiz-adv-x="909" d="M47 0l385 1450l135 10l-256 -962q250 109 341 184.5t91 161.5q0 21 -4 49l133 22q9 -41 9 -55q0 -55 -14 -97.5t-56.5 -94.5t-131.5 -107t-228 -117l323 -428l-141 -28l-338 448l-115 -436h-133z" />
<glyph unicode="l" horiz-adv-x="475" d="M47 0l385 1450l137 10l-389 -1460h-133z" />
<glyph unicode="m" horiz-adv-x="1427" d="M47 0l238 901l137 10l-45 -159h6l229 141q51 33 105 33q55 0 96 -43.5t41 -98.5v-34l213 141q52 35 119 35q57 0 100 -43t43 -99q0 -59 -22 -143l-107 -403q-35 -131 -35 -238h-131q0 118 45 285l121 460l-43 56q-122 -26 -319 -156l-174 -645h-134l199 745l-45 56 q-119 -26 -334 -164l-170 -637h-133z" />
<glyph unicode="n" horiz-adv-x="976" d="M47 0l238 901l137 10l-45 -159h6l229 139q57 35 121 35q57 0 101.5 -43.5t44.5 -98.5t-23 -143l-108 -403q-33 -123 -33 -238h-133q0 118 45 285l123 460l-43 56q-132 -20 -357 -164l-170 -637h-133z" />
<glyph unicode="o" horiz-adv-x="958" d="M90 334q0 134 40 248t105.5 188t147.5 115t168 41q150 0 234.5 -98t84.5 -257q0 -160 -60.5 -295.5t-167 -215.5t-234.5 -80q-78 0 -140 28.5t-100 77.5t-58 112t-20 136zM227 328q0 -109 50 -170.5t133 -61.5q96 0 170.5 67.5t113.5 177t39 239.5q0 109 -53 169t-131 60 q-140 0 -231 -138.5t-91 -342.5z" />
<glyph unicode="p" horiz-adv-x="1003" d="M-53 -522l305 1145l-141 -58l20 84l148 74l59 225l139 13l-51 -177h10l221 105q48 22 99 22q75 0 120.5 -64.5t45.5 -197.5q0 -142 -49 -270.5t-124.5 -213.5t-165 -135t-171.5 -50q-55 0 -193 30l-149 -563zM252 123q126 -29 178 -29q54 0 115.5 42t115.5 113.5 t89.5 180t35.5 227.5q0 50 -14 107l-55 29q-140 -43 -318 -119z" />
<glyph unicode="q" horiz-adv-x="976" d="M90 252q0 142 49.5 271.5t125.5 215.5t165.5 136.5t171.5 50.5q72 0 322 -49l-377 -1422l-127 27l184 686h-8l-268 -166q-34 -22 -76 -22q-75 0 -118.5 68.5t-43.5 203.5zM225 238q0 -46 15 -105l53 -29q133 54 336 162l139 520q-151 25 -186 25q-43 0 -92 -27t-95.5 -79 t-84.5 -120.5t-61.5 -159.5t-23.5 -187z" />
<glyph unicode="r" horiz-adv-x="679" d="M49 0l238 901l137 10l-49 -176h6q96 88 155.5 129t95 51.5t89.5 10.5l-25 -162l-94 10q-112 -29 -260 -180l-160 -594h-133z" />
<glyph unicode="s" horiz-adv-x="696" d="M6 31l43 123q93 -58 225 -58q71 0 113.5 34.5t42.5 92.5q0 37 -21.5 73t-53 63.5t-69 61.5t-69 65.5t-53 75.5t-21.5 91q0 86 46.5 149t120 93.5t161.5 30.5t191 -21l-37 -125q-36 12 -95.5 20.5t-99.5 8.5q-74 0 -115 -34t-41 -93q0 -37 21.5 -73t53 -64t69 -61.5 t69 -65.5t53 -76t21.5 -92q0 -121 -88 -195.5t-231 -74.5q-142 0 -236 51z" />
<glyph unicode="t" horiz-adv-x="694" d="M141 135q0 76 41 234l111 415h-146l27 115h150l51 193l143 22l-61 -215h223l-31 -115h-223l-102 -387q-43 -165 -43 -274l24 -12q55 21 217 110l41 -84q-162 -102 -217.5 -129.5t-91.5 -27.5q-54 0 -83.5 41t-29.5 114z" />
<glyph unicode="u" horiz-adv-x="985" d="M94 123q0 51 23 139l170 641h137l-201 -749l43 -52q116 27 355 164l167 637h136l-179 -665q-32 -122 -32 -238h-127q0 83 18 164h-10l-225 -141q-66 -43 -123 -43q-68 0 -110 42.5t-42 100.5z" />
<glyph unicode="v" horiz-adv-x="802" d="M143 897l131 10l48 -592v-145h12q9 18 23 47.5t24 50t18 35.5l338 600h119q-28 -94 -107.5 -232.5t-412.5 -680.5l-117 -10z" />
<glyph unicode="w" horiz-adv-x="1294" d="M156 897l125 10q18 -553 18 -635v-96h12q19 66 49 125l316 594h104l74 -621v-98h14q16 51 47 127l256 600h117q-21 -89 -90.5 -249.5t-312.5 -663.5l-113 -10l-72 632q-4 40 -4 109h-12q-23 -71 -43 -109l-336 -622l-119 -10z" />
<glyph unicode="x" horiz-adv-x="880" d="M-41 18l414 478l-191 399l133 20l154 -340l283 340l143 -18l-375 -428l223 -459l-133 -24l-184 403l-334 -405z" />
<glyph unicode="y" horiz-adv-x="808" d="M-49 -467q54 131 145 274l133 203l-88 887l131 10l64 -737h12l400 733h116q-16 -52 -38 -104t-93.5 -182.5t-191.5 -325.5l-332 -539q-92 -151 -146 -278z" />
<glyph unicode="z" horiz-adv-x="776" d="M-8 14v109l610 659h-442l20 121h598v-104l-647 -699l498 -174l-56 -108z" />
<glyph unicode="{" horiz-adv-x="583" d="M-119 -287q0 66 37 136.5t89.5 129t105.5 112.5t90 104t37 86q0 61 -54.5 84.5t-189.5 23.5l33 125q66 0 116.5 6t98.5 21.5t74 47.5t26 79q0 58 -48 211t-48 223q0 89 31.5 155.5t87 105.5t124.5 58t152 19t135 -6l-24 -119q-58 4 -111 4q-250 0 -250 -205 q0 -66 46 -220.5t46 -215.5q0 -205 -262 -223v-13q87 -20 126.5 -62t39.5 -108q0 -39 -26.5 -85.5t-66.5 -89t-87 -91.5t-87 -92.5t-66.5 -93.5t-26.5 -94q0 -146 211 -146q17 0 53 4l-25 -121q-20 -2 -61 -2q-94 0 -165 25t-116 83t-45 144z" />
<glyph unicode="|" horiz-adv-x="552" d="M-68 -526l529 1974h145l-528 -1974h-146z" />
<glyph unicode="}" horiz-adv-x="583" d="M-213 -535l25 119q58 -4 110 -4q250 0 250 205q0 67 -46 221t-46 215q0 205 260 223l2 13q-87 20 -126.5 62t-39.5 108q0 46 37 102t90 110t106.5 108.5t90.5 114.5t37 112q0 145 -211 145q-16 0 -56 -4l27 121q20 2 61 2q144 0 234 -62.5t90 -189.5q0 -66 -37 -136.5 t-89.5 -129t-105 -112.5t-89.5 -104t-37 -86q0 -61 54.5 -84.5t188.5 -23.5l-32 -125q-65 0 -115.5 -6t-98.5 -21.5t-74 -47.5t-26 -79q0 -57 48 -211t48 -223q0 -89 -31.5 -155.5t-87 -105.5t-125.5 -58t-153 -19q-84 0 -133 6z" />
<glyph unicode="~" horiz-adv-x="1024" d="M94 334q81 141 141.5 189t131.5 48q42 0 108.5 -35.5t128 -70.5t90.5 -35q36 0 73.5 39t92.5 133l88 -39q-73 -139 -134 -191.5t-134 -52.5q-49 0 -118 36t-128 72t-84 36q-36 0 -74 -38.5t-96 -131.5z" />
<glyph unicode="&#xa1;" horiz-adv-x="487" d="M-90 -494l303 1024h113l-248 -1024h-168zM231 829q0 40 28.5 67.5t68.5 27.5t68 -27.5t28 -67.5t-28 -68t-68 -28t-68.5 28t-28.5 68z" />
<glyph unicode="&#xa2;" d="M131 559q0 136 44.5 257t120.5 206t180 134.5t220 49.5h2l60 215h100l-59 -221q115 -9 215 -41l-37 -123q-53 23 -135.5 37t-157.5 14q-179 0 -297.5 -148t-118.5 -374q0 -250 244 -250q72 0 159 20t148 50l-20 -135q-108 -45 -273 -53l-59 -217h-100l59 221 q-139 21 -217 113t-78 245z" />
<glyph unicode="&#xa3;" d="M-27 0l29 109q166 3 260 94t94 246q0 65 -14 188h-205l33 117h154q-23 157 -23 229q0 107 35 192t95 138t136 80.5t162 27.5q187 0 309 -47l-32 -133q-55 22 -138.5 36.5t-160.5 14.5q-124 0 -192.5 -75t-68.5 -218q0 -95 25 -245h455l-33 -117h-408q15 -114 15 -166 q0 -127 -41 -210t-146 -142h512l-34 -119h-818z" />
<glyph unicode="&#xa4;" d="M-18 104l147 115q-41 70 -41 172q0 101 44.5 202.5t119.5 166.5l-86 114l108 70l74 -110q123 79 264 79q142 0 234 -86l127 117l76 -86l-136 -115q37 -73 37 -159q0 -103 -48 -207t-126 -174l82 -117l-104 -70l-78 115q-112 -74 -258 -74q-140 0 -221 78l-146 -121z M219 403q0 -99 58 -164t157 -65t188.5 56t143 147t53.5 190q0 100 -63 164t-162 64q-101 0 -188 -55.5t-137 -146t-50 -190.5z" />
<glyph unicode="&#xa5;" d="M121 526l37 119h264l-172 750l151 6l125 -606q11 -61 11 -95h12q11 27 53 95l424 606l160 -8l-541 -748h275l-35 -119h-310l-139 -526h-145l137 526h-307z" />
<glyph unicode="&#xa6;" horiz-adv-x="552" d="M-88 -526l217 807h150l-218 -807h-149zM225 643l215 805h150l-215 -805h-150z" />
<glyph unicode="&#xa7;" d="M127 705q0 105 73 186.5t238 142.5q-32 53 -32 113q0 125 91 199.5t240 74.5q120 0 215 -30l-26 -121q-116 37 -228 37q-76 0 -118.5 -36t-42.5 -97q0 -39 23.5 -73t61 -61t83 -53t91 -55t83 -61t61 -77t23.5 -98q0 -106 -73.5 -187.5t-240.5 -143.5q35 -54 35 -111 q0 -125 -92.5 -199.5t-241.5 -74.5q-118 0 -213 30l27 121q113 -37 225 -37q76 0 119 36.5t43 96.5q0 39 -23.5 73t-61 61t-82.5 53t-90 55t-82.5 61t-61 77t-23.5 98zM266 731q0 -38 18 -71t52 -60.5t68 -49t82 -50t77 -49.5q143 45 201.5 98t58.5 121q0 38 -18.5 70.5 t-52.5 59.5t-68.5 48.5t-82 49.5t-77.5 50q-144 -47 -201 -98.5t-57 -118.5z" />
<glyph unicode="&#xa8;" horiz-adv-x="880" d="M215 1237q0 37 25.5 62.5t62.5 25.5t61.5 -25.5t24.5 -62.5t-25 -63.5t-61 -26.5q-37 0 -62.5 26.5t-25.5 63.5zM508 1237q0 37 25 62.5t63 25.5q37 0 62.5 -25.5t25.5 -62.5t-25.5 -63.5t-62.5 -26.5q-38 0 -63 26.5t-25 63.5z" />
<glyph unicode="&#xa9;" horiz-adv-x="1554" d="M113 700q0 184 88 336.5t240.5 240t336.5 87.5q138 0 261 -51.5t211.5 -140t140 -211.5t51.5 -261q0 -184 -87.5 -336t-240 -239.5t-336.5 -87.5t-336.5 87.5t-240.5 239.5t-88 336zM205 700q0 -161 74.5 -293.5t206.5 -209t292 -76.5t292 76.5t207 209t75 293.5t-75 294 t-207 209.5t-292 76.5t-292 -76.5t-206.5 -209.5t-74.5 -294zM401 698q0 81 24 148.5t64.5 113t93.5 77.5t109.5 46.5t114.5 14.5q144 0 246 -45l-19 -105q-95 45 -219 45q-126 0 -208.5 -72.5t-82.5 -222.5q0 -90 43 -152.5t108.5 -90t145.5 -27.5q56 0 119 15.5t107 39.5 l16 -104q-101 -53 -264 -53q-107 0 -196 42t-145.5 128t-56.5 202z" />
<glyph unicode="&#xaa;" horiz-adv-x="729" d="M227 1030q0 84 30 159t77.5 124.5t105.5 78.5t115 29q55 0 193 -26l-99 -373q-18 -74 -18 -143h-90q0 53 12 96h-8l-150 -84q-36 -23 -65 -23q-46 0 -74.5 41.5t-28.5 120.5zM326 1030q0 -26 8 -57l33 -17q137 56 196 86l76 285q-80 16 -98 16q-32 0 -68.5 -21.5 t-69.5 -59.5t-55 -99.5t-22 -132.5z" />
<glyph unicode="&#xab;" horiz-adv-x="919" d="M57 461l11 39l428 370l120 -32l-401 -375l191 -416l-113 -33zM416 461l12 39l428 370l119 -32l-402 -375l191 -416l-113 -33z" />
<glyph unicode="&#xac;" horiz-adv-x="1024" d="M125 621l33 122h827l-135 -512h-131l104 390h-698z" />
<glyph unicode="&#xad;" horiz-adv-x="694" d="M96 469l35 119h473l-35 -119h-473z" />
<glyph unicode="&#xae;" horiz-adv-x="1554" d="M113 700q0 184 88 336.5t240.5 240t336.5 87.5q138 0 261 -51.5t211.5 -140t140 -211.5t51.5 -261q0 -184 -87.5 -336t-240 -239.5t-336.5 -87.5t-336.5 87.5t-240.5 239.5t-88 336zM205 700q0 -161 74.5 -293.5t206.5 -209t292 -76.5t292 76.5t207 209t75 293.5t-75 294 t-207 209.5t-292 76.5t-292 -76.5t-206.5 -209.5t-74.5 -294zM537 338v749h55q6 0 82 3.5t96 3.5q120 0 189 -55.5t69 -157.5q0 -80 -46.5 -134.5t-117.5 -70.5v-6l256 -318l-116 -22l-248 311h-113v-303h-106zM643 737h100q172 0 172 133q0 127 -167 127q-73 0 -105 -4 v-256z" />
<glyph unicode="&#xaf;" horiz-adv-x="1024" d="M227 1147l29 113h537l-29 -113h-537z" />
<glyph unicode="&#xb0;" horiz-adv-x="663" d="M236 1124q0 133 93 218t228 85q99 0 159 -54.5t60 -151.5q0 -133 -94.5 -218t-230.5 -85q-97 0 -156 55.5t-59 150.5zM348 1133q0 -56 32 -88.5t91 -32.5q84 0 138.5 58t54.5 144q0 54 -33 86.5t-90 32.5q-83 0 -138 -58t-55 -142z" />
<glyph unicode="&#xb1;" horiz-adv-x="1024" d="M125 0v115h774v-115h-774zM125 496v120h326v320h120v-320h328v-120h-328v-318h-120v318h-326z" />
<glyph unicode="&#xb2;" horiz-adv-x="819" d="M59 524l7 90q252 145 384 243t177 165.5t45 144.5q0 72 -44.5 112t-125.5 40q-109 0 -193 -53v112q98 45 215 45q120 0 194.5 -67t74.5 -178q0 -138 -114 -259.5t-405 -289.5h431l-31 -105h-615z" />
<glyph unicode="&#xb3;" horiz-adv-x="819" d="M74 510v104q238 0 377 56.5t139 160.5q0 109 -160 109h-141l20 100h211q65 24 99 65t34 91q0 57 -38.5 89t-112.5 32q-118 0 -197 -47v112q106 39 213 39q115 0 183.5 -56.5t68.5 -150.5q0 -70 -44.5 -124t-123.5 -86v-7q51 -19 83 -60.5t32 -102.5q0 -104 -83 -178 t-226.5 -110t-333.5 -36z" />
<glyph unicode="&#xb4;" horiz-adv-x="997" d="M330 1018l288 403h164l-344 -403h-108z" />
<glyph unicode="&#xb5;" horiz-adv-x="1038" d="M-4 -541q0 99 41 317t96 421l186 706h138l-201 -749l43 -52q52 12 150 57.5t204 106.5l168 637h135l-178 -665q-33 -125 -33 -238h-127q0 57 19 164h-10l-209 -139q-60 -41 -133 -41q-43 0 -66 10l-59 -260q-29 -139 -29 -258z" />
<glyph unicode="&#xb6;" d="M111 797q0 179 74 321.5t207 222.5t302 80q86 0 184 -18t177 -51l-287 -1073q-39 -148 -127 -223.5t-217 -75.5q-110 0 -180 43l26 98q61 -41 158 -41q87 0 150 53.5t90 157.5l256 964q-30 11 -78 19l-264 -987q-20 -76 -54 -108t-90 -32l307 1141q-37 6 -81 6 q-116 0 -211 -67.5t-147 -178t-52 -239.5q0 -180 156 -180q32 0 84 10v-121q-50 -18 -125 -18q-110 0 -184 78t-74 219z" />
<glyph unicode="&#xb7;" horiz-adv-x="434" d="M115 487q0 43 31.5 74t74.5 31t74 -31t31 -74t-31 -73.5t-74 -30.5t-74.5 30.5t-31.5 73.5z" />
<glyph unicode="&#xb8;" horiz-adv-x="1024" d="M274 -399l37 92q64 -31 127 -31q52 0 86.5 29t34.5 80q0 43 -28 68t-74 28l37 74q70 0 124 -42.5t54 -121.5q0 -95 -69 -154t-165 -59q-42 0 -89.5 10t-74.5 27z" />
<glyph unicode="&#xb9;" horiz-adv-x="819" d="M106 524l35 105h252l180 671l-243 -40l12 100l258 49h119l-209 -780h221l-31 -105h-594z" />
<glyph unicode="&#xba;" horiz-adv-x="729" d="M268 1069q0 83 26.5 152t70 111.5t95.5 65.5t105 23q96 0 150.5 -57.5t54.5 -149.5q0 -151 -86.5 -250.5t-210.5 -99.5q-99 0 -152 58t-53 147zM369 1077q0 -131 110 -131q86 0 138.5 74t52.5 190q0 66 -30.5 97.5t-80.5 31.5q-82 0 -136 -73.5t-54 -188.5z" />
<glyph unicode="&#xbb;" horiz-adv-x="919" d="M-72 47l402 375l-191 416l113 32l235 -446l-12 -39l-428 -371zM287 47l401 375l-190 416l112 32l236 -446l-12 -39l-428 -371z" />
<glyph unicode="&#xbc;" horiz-adv-x="1984" d="M106 524l35 105h252l180 671l-243 -40l12 100l258 49h119l-209 -780h221l-31 -105h-594zM426 0l1098 1397h133l-1096 -1397h-135zM1206 215l15 102l538 578l119 -14l-532 -568h290l78 295h109l-78 -295h133l-27 -98h-133l-55 -215h-111l58 215h-404z" />
<glyph unicode="&#xbd;" horiz-adv-x="1984" d="M106 524l35 105h252l180 671l-243 -40l12 100l258 49h119l-209 -780h221l-31 -105h-594zM428 0l1098 1397h133l-1096 -1397h-135zM1137 0l6 90q252 145 384 243t177 165.5t45 144.5q0 72 -44.5 112t-125.5 40q-108 0 -193 -54v113q98 45 216 45q119 0 193.5 -67 t74.5 -179q0 -139 -114 -260t-404 -289h430l-31 -104h-614z" />
<glyph unicode="&#xbe;" horiz-adv-x="1984" d="M74 510v104q238 0 377 56.5t139 160.5q0 109 -160 109h-141l20 100h211q65 24 99 65t34 91q0 57 -38.5 89t-112.5 32q-118 0 -197 -47v112q106 39 213 39q115 0 183.5 -56.5t68.5 -150.5q0 -70 -44.5 -124t-123.5 -86v-7q51 -19 83 -60.5t32 -102.5q0 -104 -83 -178 t-226.5 -110t-333.5 -36zM428 0l1098 1397h133l-1096 -1397h-135zM1206 215l15 102l538 578l119 -14l-532 -568h290l78 295h109l-78 -295h133l-27 -98h-133l-55 -215h-111l58 215h-404z" />
<glyph unicode="&#xbf;" horiz-adv-x="638" d="M-12 -195q0 85 24 162.5t100 212.5t230 367l113 -25q-207 -321 -272.5 -455t-65.5 -235q0 -105 62.5 -166t172.5 -61q59 0 99 8l-15 -117q-36 -8 -100 -8q-149 0 -248.5 84t-99.5 233zM389 829q0 40 28 67.5t68 27.5t67.5 -27.5t27.5 -67.5t-27.5 -68t-67.5 -28t-68 28 t-28 68z" />
<glyph unicode="&#xc0;" horiz-adv-x="1226" d="M-61 0l837 1397h144l104 -1389l-141 -14l-33 477h-477l-277 -471h-157zM449 594h393l-35 522q-2 29 -2 92h-12q-8 -27 -35 -84zM633 1710h160l114 -235h-94z" />
<glyph unicode="&#xc1;" horiz-adv-x="1226" d="M-61 0l837 1397h144l104 -1389l-141 -14l-33 477h-477l-277 -471h-157zM449 594h393l-35 522q-2 29 -2 92h-12q-8 -27 -35 -84zM801 1475l227 235h178l-299 -235h-106z" />
<glyph unicode="&#xc2;" horiz-adv-x="1226" d="M-61 0l837 1397h144l104 -1389l-141 -14l-33 477h-477l-277 -471h-157zM449 594h393l-35 522q-2 29 -2 92h-12q-8 -27 -35 -84zM535 1487l317 235h94l191 -235l-90 -14l-164 151l-250 -151z" />
<glyph unicode="&#xc3;" horiz-adv-x="1226" d="M-61 0l837 1397h144l104 -1389l-141 -14l-33 477h-477l-277 -471h-157zM449 594h393l-35 522q-2 29 -2 92h-12q-8 -27 -35 -84zM520 1546q61 100 119.5 142.5t124.5 42.5q35 0 85 -31.5t97 -63.5t76 -32q43 0 78.5 30.5t77.5 106.5l57 -39q-60 -114 -115 -155.5 t-121 -41.5q-30 0 -68.5 20.5t-70 45t-66.5 45t-57 20.5q-39 0 -83 -34.5t-85 -102.5z" />
<glyph unicode="&#xc4;" horiz-adv-x="1226" d="M-61 0l837 1397h144l104 -1389l-141 -14l-33 477h-477l-277 -471h-157zM449 594h393l-35 522q-2 29 -2 92h-12q-8 -27 -35 -84zM623 1565q0 37 25.5 62.5t62.5 25.5t61.5 -25.5t24.5 -62.5t-25 -63.5t-61 -26.5q-37 0 -62.5 26.5t-25.5 63.5zM915 1565q0 37 24.5 62.5 t61.5 25.5q38 0 64.5 -25.5t26.5 -62.5t-26.5 -63.5t-64.5 -26.5q-36 0 -61 26.5t-25 63.5z" />
<glyph unicode="&#xc5;" horiz-adv-x="1226" d="M-57 6l815 1362q-38 19 -60 56t-22 83q0 96 67 156.5t164 60.5q71 0 115.5 -43t44.5 -114q0 -75 -39.5 -127.5t-105.5 -75.5l102 -1364h-141l-33 471h-477l-281 -477zM449 594h393l-35 522q-2 29 -2 92h-12q-8 -27 -35 -84zM766 1516q0 -39 24.5 -62.5t63.5 -23.5 q55 0 89 38.5t34 94.5q0 39 -23.5 62.5t-62.5 23.5q-55 0 -90 -38.5t-35 -94.5z" />
<glyph unicode="&#xc6;" horiz-adv-x="1765" d="M-57 0l987 1397h821l-35 -131h-565l-129 -484h528l-32 -131h-531l-139 -520h696l-20 -131h-856l174 651h-283l-453 -651h-163zM647 774h227l136 502h-17z" />
<glyph unicode="&#xc7;" horiz-adv-x="1314" d="M160 498q0 166 53 319t144.5 270.5t214 204t262.5 129.5q104 -5 254 -29.5t235 -52.5l-31 -137q-94 30 -235 58t-223 32q-229 -87 -377 -303t-148 -469q0 -109 31.5 -190.5t86 -127.5t120.5 -68.5t143 -22.5q109 0 228 33.5t210 91.5l-16 -158q-204 -98 -450 -98 q-100 0 -188 30.5t-159.5 91t-113 162.5t-41.5 234zM317 -399l37 92q64 -31 127 -31q52 0 86.5 29t34.5 80q0 43 -28 68t-74 28l37 74q70 0 124 -42.5t54 -121.5q0 -95 -69 -154t-165 -59q-42 0 -89.5 10t-74.5 27z" />
<glyph unicode="&#xc8;" horiz-adv-x="1185" d="M86 0l375 1397h710l-34 -131h-564l-131 -484h529l-33 -131h-530l-140 -520h695l-19 -131h-858zM586 1710h159l115 -235h-94z" />
<glyph unicode="&#xc9;" horiz-adv-x="1185" d="M86 0l375 1397h710l-34 -131h-564l-131 -484h529l-33 -131h-530l-140 -520h695l-19 -131h-858zM670 1475l227 235h178l-299 -235h-106z" />
<glyph unicode="&#xca;" horiz-adv-x="1185" d="M86 0l375 1397h710l-34 -131h-564l-131 -484h529l-33 -131h-530l-140 -520h695l-19 -131h-858zM526 1487l318 235h94l190 -235l-90 -14l-164 151l-249 -151z" />
<glyph unicode="&#xcb;" horiz-adv-x="1185" d="M86 0l375 1397h710l-34 -131h-564l-131 -484h529l-33 -131h-530l-140 -520h695l-19 -131h-858zM586 1565q0 37 25.5 62.5t62.5 25.5t61.5 -25.5t24.5 -62.5t-25 -63.5t-61 -26.5q-37 0 -62.5 26.5t-25.5 63.5zM879 1565q0 37 24.5 62.5t61.5 25.5q38 0 64 -25.5t26 -62.5 t-26 -63.5t-64 -26.5q-36 0 -61 26.5t-25 63.5z" />
<glyph unicode="&#xcc;" horiz-adv-x="587" d="M86 0l375 1397h147l-375 -1397h-147zM332 1710h160l114 -235h-94z" />
<glyph unicode="&#xcd;" horiz-adv-x="587" d="M86 0l375 1397h147l-375 -1397h-147zM481 1475l228 235h178l-299 -235h-107z" />
<glyph unicode="&#xce;" horiz-adv-x="587" d="M86 0l375 1397h147l-375 -1397h-147zM260 1487l293 235h94l168 -235l-88 -14l-143 151l-228 -151z" />
<glyph unicode="&#xcf;" horiz-adv-x="587" d="M86 0l375 1397h147l-375 -1397h-147zM322 1565q0 37 25.5 62.5t62.5 25.5t61.5 -25.5t24.5 -62.5t-25 -63.5t-61 -26.5q-37 0 -62.5 26.5t-25.5 63.5zM614 1565q0 37 24.5 62.5t61.5 25.5q38 0 64.5 -25.5t26.5 -62.5t-26.5 -63.5t-64.5 -26.5q-36 0 -61 26.5t-25 63.5z " />
<glyph unicode="&#xd0;" horiz-adv-x="1437" d="M86 0l180 676h-176l31 115h176l164 606h63q40 0 171 5t179 5q242 0 376 -140t134 -393q0 -106 -25.5 -213.5t-73 -205.5t-118.5 -183t-157 -147.5t-194.5 -98.5t-225.5 -36q-55 0 -214 5t-190 5h-100zM268 131q212 -16 443 -16q233 66 378.5 278t145.5 486 q0 197 -105 300t-290 103q-147 0 -267 -8l-129 -483h320l-29 -115h-321z" />
<glyph unicode="&#xd1;" horiz-adv-x="1492" d="M86 0l375 1397h145l424 -1094q18 -50 27 -94h12q3 48 16 100l291 1088h137l-372 -1395l-129 -16l-437 1122q-18 44 -24 96h-12q-4 -30 -17 -90l-299 -1114h-137zM662 1546q61 100 119 142.5t124 42.5q35 0 85 -31.5t97 -63.5t76 -32q43 0 78.5 30.5t77.5 106.5l57 -39 q-61 -114 -115 -155.5t-120 -41.5q-30 0 -68.5 20.5t-70 45t-66.5 45t-57 20.5q-39 0 -83 -34.5t-85 -102.5z" />
<glyph unicode="&#xd2;" horiz-adv-x="1460" d="M160 532q0 128 32.5 255t97.5 241t154 202t211.5 139.5t259.5 51.5q230 0 361 -148t131 -405q0 -128 -32.5 -255t-98 -241t-154.5 -201.5t-210.5 -139t-258.5 -51.5q-234 0 -363.5 145t-129.5 407zM309 522q0 -192 94 -304t263 -112q165 0 302 109t213 287.5t76 382.5 q0 188 -94.5 298.5t-259.5 110.5q-167 0 -304 -105.5t-213.5 -282t-76.5 -384.5zM752 1710h159l115 -235h-94z" />
<glyph unicode="&#xd3;" horiz-adv-x="1460" d="M160 532q0 128 32.5 255t97.5 241t154 202t211.5 139.5t259.5 51.5q230 0 361 -148t131 -405q0 -128 -32.5 -255t-98 -241t-154.5 -201.5t-210.5 -139t-258.5 -51.5q-234 0 -363.5 145t-129.5 407zM309 522q0 -192 94 -304t263 -112q165 0 302 109t213 287.5t76 382.5 q0 188 -94.5 298.5t-259.5 110.5q-167 0 -304 -105.5t-213.5 -282t-76.5 -384.5zM866 1475l228 235h178l-299 -235h-107z" />
<glyph unicode="&#xd4;" horiz-adv-x="1460" d="M160 532q0 128 32.5 255t97.5 241t154 202t211.5 139.5t259.5 51.5q230 0 361 -148t131 -405q0 -128 -32.5 -255t-98 -241t-154.5 -201.5t-210.5 -139t-258.5 -51.5q-234 0 -363.5 145t-129.5 407zM309 522q0 -192 94 -304t263 -112q165 0 302 109t213 287.5t76 382.5 q0 188 -94.5 298.5t-259.5 110.5q-167 0 -304 -105.5t-213.5 -282t-76.5 -384.5zM621 1487l317 235h94l191 -235l-90 -14l-164 151l-250 -151z" />
<glyph unicode="&#xd5;" horiz-adv-x="1460" d="M160 532q0 128 32.5 255t97.5 241t154 202t211.5 139.5t259.5 51.5q230 0 361 -148t131 -405q0 -128 -32.5 -255t-98 -241t-154.5 -201.5t-210.5 -139t-258.5 -51.5q-234 0 -363.5 145t-129.5 407zM309 522q0 -192 94 -304t263 -112q165 0 302 109t213 287.5t76 382.5 q0 188 -94.5 298.5t-259.5 110.5q-167 0 -304 -105.5t-213.5 -282t-76.5 -384.5zM606 1546q61 100 119.5 142.5t124.5 42.5q35 0 85 -31.5t97 -63.5t76 -32q43 0 78.5 30.5t77.5 106.5l57 -39q-60 -114 -115 -155.5t-121 -41.5q-30 0 -68.5 20.5t-70 45t-66.5 45t-57 20.5 q-39 0 -83 -34.5t-85 -102.5z" />
<glyph unicode="&#xd6;" horiz-adv-x="1460" d="M160 532q0 128 32.5 255t97.5 241t154 202t211.5 139.5t259.5 51.5q230 0 361 -148t131 -405q0 -128 -32.5 -255t-98 -241t-154.5 -201.5t-210.5 -139t-258.5 -51.5q-234 0 -363.5 145t-129.5 407zM309 522q0 -192 94 -304t263 -112q165 0 302 109t213 287.5t76 382.5 q0 188 -94.5 298.5t-259.5 110.5q-167 0 -304 -105.5t-213.5 -282t-76.5 -384.5zM692 1565q0 37 25.5 62.5t62.5 25.5t61.5 -25.5t24.5 -62.5t-25 -63.5t-61 -26.5q-37 0 -62.5 26.5t-25.5 63.5zM985 1565q0 37 24.5 62.5t61.5 25.5q38 0 64 -25.5t26 -62.5t-26 -63.5 t-64 -26.5q-36 0 -61 26.5t-25 63.5z" />
<glyph unicode="&#xd7;" horiz-adv-x="1024" d="M109 805l90 90l319 -320l320 320l88 -88l-320 -315l322 -314l-88 -88l-322 318l-317 -320l-90 88l321 316z" />
<glyph unicode="&#xd8;" horiz-adv-x="1460" d="M96 -88l183 223q-119 143 -119 397q0 128 32.5 255t97.5 241t154 202t211.5 139.5t259.5 51.5q199 0 324 -110l137 168h84l-176 -215q123 -148 123 -396q0 -128 -32.5 -255t-98 -241t-154.5 -201.5t-210.5 -139t-258.5 -51.5q-201 0 -325 106l-142 -174h-90zM309 522 q0 -161 66 -268l772 944q-93 96 -244 96q-167 0 -304 -105.5t-213.5 -282t-76.5 -384.5zM420 199q93 -93 246 -93q165 0 302 109t213 287.5t76 382.5q0 156 -67 262z" />
<glyph unicode="&#xd9;" horiz-adv-x="1429" d="M207 346q0 102 39 246l215 805h147l-221 -822q-33 -129 -33 -217q0 -111 79 -177t216 -66q165 0 260 79t148 273l250 930h141l-252 -940q-65 -248 -196.5 -362.5t-360.5 -114.5q-119 0 -215.5 40.5t-156.5 125t-60 200.5zM743 1710h160l115 -235h-94z" />
<glyph unicode="&#xda;" horiz-adv-x="1429" d="M207 346q0 102 39 246l215 805h147l-221 -822q-33 -129 -33 -217q0 -111 79 -177t216 -66q165 0 260 79t148 273l250 930h141l-252 -940q-65 -248 -196.5 -362.5t-360.5 -114.5q-119 0 -215.5 40.5t-156.5 125t-60 200.5zM858 1475l227 235h179l-299 -235h-107z" />
<glyph unicode="&#xdb;" horiz-adv-x="1429" d="M207 346q0 102 39 246l215 805h147l-221 -822q-33 -129 -33 -217q0 -111 79 -177t216 -66q165 0 260 79t148 273l250 930h141l-252 -940q-65 -248 -196.5 -362.5t-360.5 -114.5q-119 0 -215.5 40.5t-156.5 125t-60 200.5zM666 1487l317 235h94l191 -235l-90 -14l-164 151 l-250 -151z" />
<glyph unicode="&#xdc;" horiz-adv-x="1429" d="M207 346q0 102 39 246l215 805h147l-221 -822q-33 -129 -33 -217q0 -111 79 -177t216 -66q165 0 260 79t148 273l250 930h141l-252 -940q-65 -248 -196.5 -362.5t-360.5 -114.5q-119 0 -215.5 40.5t-156.5 125t-60 200.5zM741 1565q0 37 25.5 62.5t62.5 25.5t61.5 -25.5 t24.5 -62.5t-25 -63.5t-61 -26.5q-37 0 -62.5 26.5t-25.5 63.5zM1034 1565q0 37 24.5 62.5t61.5 25.5q38 0 64 -25.5t26 -62.5t-26 -63.5t-64 -26.5q-36 0 -61 26.5t-25 63.5z" />
<glyph unicode="&#xdd;" horiz-adv-x="1001" d="M238 1389l151 16l143 -645q15 -67 15 -101h10q16 52 51 101l451 637h174l-635 -875l-139 -522h-148l140 520zM643 1475l227 235h179l-299 -235h-107z" />
<glyph unicode="&#xde;" horiz-adv-x="1107" d="M86 0l375 1397h145l-76 -279q30 0 82 2t70 2q107 0 188.5 -34.5t132 -111t50.5 -188.5q0 -142 -81 -254t-219 -172.5t-309 -62.5l-20 131q226 0 352.5 93.5t126.5 260.5q0 111 -69.5 163t-176.5 52q-79 0 -157 -4l-269 -995h-145z" />
<glyph unicode="&#xdf;" horiz-adv-x="991" d="M-293 -371q268 18 389 469l246 918q27 99 65 176.5t80.5 127t93.5 82t101 45.5t104 13q107 0 171.5 -56.5t64.5 -156.5q0 -60 -26.5 -117.5t-66 -99.5t-85.5 -85.5t-85.5 -78.5t-66 -76.5t-26.5 -80.5q0 -45 22.5 -94.5t55 -93.5t64.5 -89t54.5 -96t22.5 -98 q0 -116 -80 -187t-207 -71q-122 0 -207 47l37 123q80 -54 195 -54q60 0 94.5 31t34.5 86q0 37 -22.5 82t-54 88.5t-63.5 89.5t-54.5 102t-22.5 109q0 62 37.5 126t90.5 117t106 103.5t90.5 102t37.5 94.5q0 119 -133 119q-102 0 -178 -94.5t-121 -268.5l-240 -920 q-36 -139 -89.5 -243.5t-117 -167.5t-130 -96t-138.5 -41z" />
<glyph unicode="&#xe0;" horiz-adv-x="952" d="M76 252q0 115 32 222t85 187.5t119.5 141t137.5 92t136 31.5q53 0 303 -47l-170 -643q-33 -125 -33 -236h-127q0 65 21 168h-11l-256 -166q-22 -14 -36 -18t-39 -4q-75 0 -118.5 68.5t-43.5 203.5zM211 238q0 -50 14 -105l54 -29q169 74 315 164l139 516q-131 27 -168 27 q-42 0 -90.5 -27t-95 -79t-84.5 -120.5t-61 -159.5t-23 -187zM381 1421h156l159 -403h-102z" />
<glyph unicode="&#xe1;" horiz-adv-x="952" d="M76 252q0 115 32 222t85 187.5t119.5 141t137.5 92t136 31.5q53 0 303 -47l-170 -643q-33 -125 -33 -236h-127q0 65 21 168h-11l-256 -166q-22 -14 -36 -18t-39 -4q-75 0 -118.5 68.5t-43.5 203.5zM211 238q0 -50 14 -105l54 -29q169 74 315 164l139 516q-131 27 -168 27 q-42 0 -90.5 -27t-95 -79t-84.5 -120.5t-61 -159.5t-23 -187zM510 1018l289 403h164l-345 -403h-108z" />
<glyph unicode="&#xe2;" horiz-adv-x="952" d="M76 252q0 115 32 222t85 187.5t119.5 141t137.5 92t136 31.5q53 0 303 -47l-170 -643q-33 -125 -33 -236h-127q0 65 21 168h-11l-256 -166q-22 -14 -36 -18t-39 -4q-75 0 -118.5 68.5t-43.5 203.5zM211 238q0 -50 14 -105l54 -29q169 74 315 164l139 516q-131 27 -168 27 q-42 0 -90.5 -27t-95 -79t-84.5 -120.5t-61 -159.5t-23 -187zM309 1028l338 393h119l152 -393l-103 -12l-131 293l-268 -293z" />
<glyph unicode="&#xe3;" horiz-adv-x="952" d="M76 252q0 115 32 222t85 187.5t119.5 141t137.5 92t136 31.5q53 0 303 -47l-170 -643q-33 -125 -33 -236h-127q0 65 21 168h-11l-256 -166q-22 -14 -36 -18t-39 -4q-75 0 -118.5 68.5t-43.5 203.5zM211 238q0 -50 14 -105l54 -29q169 74 315 164l139 516q-131 27 -168 27 q-42 0 -90.5 -27t-95 -79t-84.5 -120.5t-61 -159.5t-23 -187zM301 1145q64 116 119.5 161.5t122.5 45.5q30 0 68 -22t67.5 -49t63.5 -49t57 -22q40 0 68 29t71 115l76 -33q-62 -127 -114 -171t-116 -44q-33 0 -72.5 22t-69.5 48.5t-64 48.5t-56 22q-38 0 -70.5 -30.5 t-82.5 -112.5z" />
<glyph unicode="&#xe4;" horiz-adv-x="952" d="M76 252q0 115 32 222t85 187.5t119.5 141t137.5 92t136 31.5q53 0 303 -47l-170 -643q-33 -125 -33 -236h-127q0 65 21 168h-11l-256 -166q-22 -14 -36 -18t-39 -4q-75 0 -118.5 68.5t-43.5 203.5zM211 238q0 -50 14 -105l54 -29q169 74 315 164l139 516q-131 27 -168 27 q-42 0 -90.5 -27t-95 -79t-84.5 -120.5t-61 -159.5t-23 -187zM403 1237q0 37 26 62.5t63 25.5t61.5 -25.5t24.5 -62.5t-25 -63.5t-61 -26.5q-37 0 -63 26.5t-26 63.5zM696 1237q0 37 25 62.5t63 25.5q37 0 62.5 -25.5t25.5 -62.5t-25.5 -63.5t-62.5 -26.5q-38 0 -63 26.5 t-25 63.5z" />
<glyph unicode="&#xe5;" horiz-adv-x="952" d="M76 252q0 115 32 222t85 187.5t119.5 141t137.5 92t136 31.5q53 0 303 -47l-170 -643q-33 -125 -33 -236h-127q0 65 21 168h-11l-256 -166q-22 -14 -36 -18t-39 -4q-75 0 -118.5 68.5t-43.5 203.5zM211 238q0 -50 14 -105l54 -29q169 74 315 164l139 516q-131 27 -168 27 q-42 0 -90.5 -27t-95 -79t-84.5 -120.5t-61 -159.5t-23 -187zM463 1188q0 96 67.5 156.5t163.5 60.5q71 0 115.5 -43t44.5 -113q0 -99 -66.5 -158t-166.5 -59q-68 0 -113 44t-45 112zM553 1198q0 -41 24 -64.5t64 -23.5q55 0 89 38.5t34 94.5q0 39 -23.5 62.5t-62.5 23.5 q-56 0 -90.5 -38t-34.5 -93z" />
<glyph unicode="&#xe6;" horiz-adv-x="1335" d="M76 252q0 141 48.5 269.5t123 215t164.5 138t174 51.5q58 0 252 -41l-23 -60h10q52 51 114.5 76t119.5 25q102 0 158.5 -52.5t56.5 -148.5q0 -132 -132.5 -224.5t-365.5 -92.5h-55q-4 -37 -4 -95q0 -100 39.5 -156.5t111.5 -56.5q48 0 103.5 26t193.5 120l43 -94 q-148 -105 -222.5 -138.5t-141.5 -33.5q-186 0 -244 194h-8l-279 -172q-25 -15 -37 -18.5t-38 -3.5q-74 0 -118 67.5t-44 204.5zM211 238q0 -61 14 -105l54 -29q109 45 307 150q-2 14 -2 45q0 118 43.5 246t115.5 235q-133 31 -178 31q-43 0 -91.5 -27t-95 -79.5t-84 -121 t-60.5 -159t-23 -186.5zM741 502h37q168 0 264.5 57t96.5 160q0 51 -29 76.5t-78 25.5q-84 0 -168.5 -86t-122.5 -233z" />
<glyph unicode="&#xe7;" horiz-adv-x="813" d="M74 -399l37 92q64 -31 127 -31q52 0 86 29t34 80q0 43 -28 68t-74 28l37 74q70 0 124 -42.5t54 -121.5q0 -95 -68.5 -154t-164.5 -59q-42 0 -89.5 10t-74.5 27zM94 301q0 140 43 260t114 198.5t162 122.5t187 44q119 0 184 -29l-28 -123q-85 31 -174 31 q-107 0 -188.5 -69.5t-123 -180.5t-41.5 -242q0 -100 40 -156.5t112 -56.5q50 0 101 22.5t180 110.5l43 -92q-141 -101 -210 -131t-139 -30q-119 0 -190.5 85.5t-71.5 235.5z" />
<glyph unicode="&#xe8;" horiz-adv-x="843" d="M90 301q0 136 44 256.5t113.5 199t153 124t164.5 45.5q104 0 160.5 -52t56.5 -149q0 -132 -131 -224.5t-364 -92.5h-56q-6 -55 -6 -95q0 -100 40 -156.5t112 -56.5q48 0 104 26t195 120l43 -94q-150 -105 -224 -138.5t-143 -33.5q-119 0 -190.5 85.5t-71.5 235.5z M250 502h39q168 0 264 57t96 160q0 51 -29 76.5t-77 25.5q-85 0 -169.5 -85.5t-123.5 -233.5zM348 1421h156l160 -403h-103z" />
<glyph unicode="&#xe9;" horiz-adv-x="843" d="M90 301q0 136 44 256.5t113.5 199t153 124t164.5 45.5q104 0 160.5 -52t56.5 -149q0 -132 -131 -224.5t-364 -92.5h-56q-6 -55 -6 -95q0 -100 40 -156.5t112 -56.5q48 0 104 26t195 120l43 -94q-150 -105 -224 -138.5t-143 -33.5q-119 0 -190.5 85.5t-71.5 235.5z M250 502h39q168 0 264 57t96 160q0 51 -29 76.5t-77 25.5q-85 0 -169.5 -85.5t-123.5 -233.5zM498 1018l288 403h164l-344 -403h-108z" />
<glyph unicode="&#xea;" horiz-adv-x="843" d="M90 301q0 136 44 256.5t113.5 199t153 124t164.5 45.5q104 0 160.5 -52t56.5 -149q0 -132 -131 -224.5t-364 -92.5h-56q-6 -55 -6 -95q0 -100 40 -156.5t112 -56.5q48 0 104 26t195 120l43 -94q-150 -105 -224 -138.5t-143 -33.5q-119 0 -190.5 85.5t-71.5 235.5z M250 502h39q168 0 264 57t96 160q0 51 -29 76.5t-77 25.5q-85 0 -169.5 -85.5t-123.5 -233.5zM268 1028l338 393h119l152 -393l-103 -12l-131 293l-268 -293z" />
<glyph unicode="&#xeb;" horiz-adv-x="843" d="M90 301q0 136 44 256.5t113.5 199t153 124t164.5 45.5q104 0 160.5 -52t56.5 -149q0 -132 -131 -224.5t-364 -92.5h-56q-6 -55 -6 -95q0 -100 40 -156.5t112 -56.5q48 0 104 26t195 120l43 -94q-150 -105 -224 -138.5t-143 -33.5q-119 0 -190.5 85.5t-71.5 235.5z M250 502h39q168 0 264 57t96 160q0 51 -29 76.5t-77 25.5q-85 0 -169.5 -85.5t-123.5 -233.5zM352 1237q0 37 25.5 62.5t62.5 25.5t61.5 -25.5t24.5 -62.5t-25 -63.5t-61 -26.5q-37 0 -62.5 26.5t-25.5 63.5zM645 1237q0 37 25 62.5t63 25.5q37 0 62.5 -25.5t25.5 -62.5 t-25.5 -63.5t-62.5 -26.5q-38 0 -63 26.5t-25 63.5z" />
<glyph unicode="&#xec;" horiz-adv-x="479" d="M47 0l238 897l137 10l-242 -907h-133zM125 1421h156l159 -403h-102z" />
<glyph unicode="&#xed;" horiz-adv-x="479" d="M47 0l238 897l137 10l-242 -907h-133zM305 1018l289 403h164l-344 -403h-109z" />
<glyph unicode="&#xee;" horiz-adv-x="479" d="M47 0l238 897l137 10l-242 -907h-133zM119 1028l272 393h125l117 -393l-109 -12l-94 264l-205 -264z" />
<glyph unicode="&#xef;" horiz-adv-x="479" d="M47 0l238 897l137 10l-242 -907h-133zM174 1237q0 37 25.5 62.5t62.5 25.5t61.5 -25.5t24.5 -62.5t-25 -63.5t-61 -26.5q-37 0 -62.5 26.5t-25.5 63.5zM467 1237q0 37 25 62.5t63 25.5q37 0 62.5 -25.5t25.5 -62.5t-25.5 -63.5t-62.5 -26.5q-38 0 -63 26.5t-25 63.5z" />
<glyph unicode="&#xf0;" horiz-adv-x="944" d="M84 328q0 157 68 294.5t185 219.5t251 82q70 0 135 -19q-12 82 -62.5 161.5t-132.5 137.5l-190 -172l-76 58l182 163q-119 53 -243 58l63 114q158 -9 285 -79l162 147l77 -57l-159 -142q109 -85 171 -216.5t62 -299.5q0 -151 -46.5 -298t-121 -256t-174.5 -176.5 t-201 -67.5q-114 0 -174.5 98t-60.5 250zM217 305q0 -49 15 -103.5t42 -90.5l91 -15q93 41 164.5 118.5t113.5 173t64 195.5t24 201q-61 23 -141 23q-107 0 -193.5 -71.5t-133 -186t-46.5 -244.5z" />
<glyph unicode="&#xf1;" horiz-adv-x="976" d="M47 0l238 901l137 10l-45 -159h6l229 139q57 35 121 35q57 0 101.5 -43.5t44.5 -98.5t-23 -143l-108 -403q-33 -123 -33 -238h-133q0 118 45 285l123 460l-43 56q-132 -20 -357 -164l-170 -637h-133zM297 1145q64 116 119.5 161.5t122.5 45.5q30 0 68 -22t67.5 -49 t63.5 -49t57 -22q40 0 68 29t71 115l76 -33q-62 -127 -114 -171t-116 -44q-33 0 -72.5 22t-69.5 48.5t-64 48.5t-56 22q-38 0 -70.5 -30.5t-82.5 -112.5z" />
<glyph unicode="&#xf2;" horiz-adv-x="958" d="M68 334q0 134 40 248t105 188t147 115t168 41q151 0 235.5 -98t84.5 -257q0 -160 -60.5 -295.5t-167.5 -215.5t-235 -80q-103 0 -176.5 49.5t-107 128t-33.5 176.5zM205 328q0 -109 49.5 -170.5t132.5 -61.5q96 0 171 67.5t114 177t39 239.5q0 109 -53.5 169t-131.5 60 q-92 0 -166 -63.5t-114.5 -173.5t-40.5 -244zM324 1421h155l160 -403h-102z" />
<glyph unicode="&#xf3;" horiz-adv-x="958" d="M68 334q0 134 40 248t105 188t147 115t168 41q151 0 235.5 -98t84.5 -257q0 -160 -60.5 -295.5t-167.5 -215.5t-235 -80q-103 0 -176.5 49.5t-107 128t-33.5 176.5zM205 328q0 -109 49.5 -170.5t132.5 -61.5q96 0 171 67.5t114 177t39 239.5q0 109 -53.5 169t-131.5 60 q-92 0 -166 -63.5t-114.5 -173.5t-40.5 -244zM473 1018l289 403h164l-344 -403h-109z" />
<glyph unicode="&#xf4;" horiz-adv-x="958" d="M68 334q0 134 40 248t105 188t147 115t168 41q151 0 235.5 -98t84.5 -257q0 -160 -60.5 -295.5t-167.5 -215.5t-235 -80q-103 0 -176.5 49.5t-107 128t-33.5 176.5zM205 328q0 -109 49.5 -170.5t132.5 -61.5q96 0 171 67.5t114 177t39 239.5q0 109 -53.5 169t-131.5 60 q-92 0 -166 -63.5t-114.5 -173.5t-40.5 -244zM250 1028l338 393h119l151 -393l-102 -12l-131 293l-269 -293z" />
<glyph unicode="&#xf5;" horiz-adv-x="958" d="M68 334q0 134 40 248t105 188t147 115t168 41q151 0 235.5 -98t84.5 -257q0 -160 -60.5 -295.5t-167.5 -215.5t-235 -80q-103 0 -176.5 49.5t-107 128t-33.5 176.5zM205 328q0 -109 49.5 -170.5t132.5 -61.5q96 0 171 67.5t114 177t39 239.5q0 109 -53.5 169t-131.5 60 q-92 0 -166 -63.5t-114.5 -173.5t-40.5 -244zM217 1145q64 116 119.5 161.5t122.5 45.5q30 0 68 -22t67.5 -49t63.5 -49t57 -22q40 0 68 29t71 115l76 -33q-62 -127 -114 -171t-116 -44q-33 0 -72.5 22t-69.5 48.5t-64 48.5t-56 22q-38 0 -70.5 -30.5t-82.5 -112.5z" />
<glyph unicode="&#xf6;" horiz-adv-x="958" d="M68 334q0 134 40 248t105 188t147 115t168 41q151 0 235.5 -98t84.5 -257q0 -160 -60.5 -295.5t-167.5 -215.5t-235 -80q-103 0 -176.5 49.5t-107 128t-33.5 176.5zM205 328q0 -109 49.5 -170.5t132.5 -61.5q96 0 171 67.5t114 177t39 239.5q0 109 -53.5 169t-131.5 60 q-92 0 -166 -63.5t-114.5 -173.5t-40.5 -244zM332 1237q0 37 25.5 62.5t62.5 25.5t61.5 -25.5t24.5 -62.5t-25 -63.5t-61 -26.5q-37 0 -62.5 26.5t-25.5 63.5zM625 1237q0 37 25 62.5t63 25.5q37 0 62.5 -25.5t25.5 -62.5t-25.5 -63.5t-62.5 -26.5q-38 0 -63 26.5t-25 63.5z " />
<glyph unicode="&#xf7;" horiz-adv-x="1024" d="M121 420v106h780v-106h-780zM403 113q0 46 31.5 78t75.5 32t76 -32t32 -78t-32 -78.5t-76 -32.5t-75.5 32.5t-31.5 78.5zM403 823q0 46 31.5 78.5t75.5 32.5t76 -32.5t32 -78.5t-32 -78t-76 -32t-75.5 32t-31.5 78z" />
<glyph unicode="&#xf8;" horiz-adv-x="958" d="M37 -158l147 224q-94 98 -94 268q0 134 40 248t105.5 188t147.5 115t168 41q97 0 170 -45l125 188h74l-150 -225q100 -95 100 -273q0 -160 -60.5 -295.5t-167 -215.5t-234.5 -80q-101 0 -177 47l-120 -185h-74zM227 328q0 -93 33 -146l391 592q-47 35 -102 35 q-140 0 -231 -138.5t-91 -342.5zM301 133q46 -37 109 -37q96 0 170.5 67.5t113.5 177t39 239.5q0 89 -39 147z" />
<glyph unicode="&#xf9;" horiz-adv-x="985" d="M94 123q0 51 23 139l170 641h137l-201 -749l43 -52q116 27 355 164l167 637h136l-179 -665q-32 -122 -32 -238h-127q0 83 18 164h-10l-225 -141q-66 -43 -123 -43q-68 0 -110 42.5t-42 100.5zM375 1421h155l160 -403h-102z" />
<glyph unicode="&#xfa;" horiz-adv-x="985" d="M94 123q0 51 23 139l170 641h137l-201 -749l43 -52q116 27 355 164l167 637h136l-179 -665q-32 -122 -32 -238h-127q0 83 18 164h-10l-225 -141q-66 -43 -123 -43q-68 0 -110 42.5t-42 100.5zM551 1018l289 403h164l-345 -403h-108z" />
<glyph unicode="&#xfb;" horiz-adv-x="985" d="M94 123q0 51 23 139l170 641h137l-201 -749l43 -52q116 27 355 164l167 637h136l-179 -665q-32 -122 -32 -238h-127q0 83 18 164h-10l-225 -141q-66 -43 -123 -43q-68 0 -110 42.5t-42 100.5zM317 1028l338 393h119l152 -393l-103 -12l-131 293l-268 -293z" />
<glyph unicode="&#xfc;" horiz-adv-x="985" d="M94 123q0 51 23 139l170 641h137l-201 -749l43 -52q116 27 355 164l167 637h136l-179 -665q-32 -122 -32 -238h-127q0 83 18 164h-10l-225 -141q-66 -43 -123 -43q-68 0 -110 42.5t-42 100.5zM422 1237q0 37 25.5 62.5t62.5 25.5t61.5 -25.5t24.5 -62.5t-25 -63.5 t-61 -26.5q-37 0 -62.5 26.5t-25.5 63.5zM715 1237q0 37 25 62.5t63 25.5q37 0 62.5 -25.5t25.5 -62.5t-25.5 -63.5t-62.5 -26.5q-38 0 -63 26.5t-25 63.5z" />
<glyph unicode="&#xfd;" horiz-adv-x="808" d="M-49 -467q54 131 145 274l133 203l-88 887l131 10l64 -737h12l400 733h116q-16 -52 -38 -104t-93.5 -182.5t-191.5 -325.5l-332 -539q-92 -151 -146 -278zM432 1018l289 403h164l-344 -403h-109z" />
<glyph unicode="&#xfe;" horiz-adv-x="1019" d="M-53 -522l305 1145l-141 -58l20 84l148 74l190 727l139 10l-182 -676h10l221 105q48 22 99 22q75 0 120.5 -64.5t45.5 -197.5q0 -142 -49.5 -271t-125 -213.5t-165 -134.5t-170.5 -50q-55 0 -193 30l-149 -563zM252 123q124 -29 178 -29q55 0 117 42t115.5 114t88.5 180 t35 227q0 55 -14 107l-55 29q-179 -56 -318 -119z" />
<glyph unicode="&#xff;" horiz-adv-x="808" d="M-49 -467q54 131 145 274l133 203l-88 887l131 10l64 -737h12l400 733h116q-16 -52 -38 -104t-93.5 -182.5t-191.5 -325.5l-332 -539q-92 -151 -146 -278zM303 1237q0 37 25.5 62.5t62.5 25.5t61.5 -25.5t24.5 -62.5t-25 -63.5t-61 -26.5q-37 0 -62.5 26.5t-25.5 63.5z M596 1237q0 37 25 62.5t63 25.5q37 0 62.5 -25.5t25.5 -62.5t-25.5 -63.5t-62.5 -26.5q-38 0 -63 26.5t-25 63.5z" />
<glyph unicode="&#x152;" horiz-adv-x="2109" d="M160 532q0 107 21.5 213.5t61.5 205.5t103 184.5t141.5 149t181.5 100t218 36.5q155 0 267.5 -75t158.5 -222h6l74 273h702l-35 -131h-563l-131 -484h528l-32 -131h-531l-139 -520h694l-18 -131h-850l47 174h-6q-74 -89 -183.5 -141.5t-234.5 -52.5q-236 0 -358.5 143.5 t-122.5 408.5zM311 522q0 -195 85 -304t255 -109q128 0 238.5 71t182 185t111.5 254t40 282q0 187 -89.5 290t-252.5 103q-166 0 -298 -106t-202 -281.5t-70 -384.5z" />
<glyph unicode="&#x153;" horiz-adv-x="1437" d="M90 330q0 138 38 252.5t101 188.5t144 114.5t168 40.5q219 0 276 -213q70 104 160 158.5t182 54.5q104 0 160.5 -52t56.5 -149q0 -132 -131 -224.5t-364 -92.5h-56q-6 -37 -6 -95q0 -100 40 -156.5t112 -56.5q48 0 104 26t195 120l43 -94q-149 -105 -224 -138.5 t-143 -33.5q-180 0 -235 178q-122 -178 -310 -178q-83 0 -144.5 28t-97 77t-52.5 110.5t-17 134.5zM227 326q0 -115 46 -172.5t130 -57.5q97 0 169 67.5t107.5 178t35.5 246.5q0 112 -47 166.5t-129 54.5q-140 0 -226 -137.5t-86 -345.5zM844 502h39q168 0 264 57t96 160 q0 51 -29 76.5t-77 25.5q-85 0 -170 -86t-123 -233z" />
<glyph unicode="&#x178;" horiz-adv-x="1001" d="M238 1389l151 16l143 -645q15 -67 15 -101h10q16 52 51 101l451 637h174l-635 -875l-139 -522h-148l140 520zM494 1565q0 37 25.5 62.5t62.5 25.5t61.5 -25.5t24.5 -62.5t-25 -63.5t-61 -26.5q-37 0 -62.5 26.5t-25.5 63.5zM786 1565q0 37 24.5 62.5t61.5 25.5 q38 0 64.5 -25.5t26.5 -62.5t-26.5 -63.5t-64.5 -26.5q-36 0 -61 26.5t-25 63.5z" />
<glyph unicode="&#x2c6;" horiz-adv-x="954" d="M139 1028l338 393h119l152 -393l-103 -12l-131 293l-268 -293z" />
<glyph unicode="&#x2dc;" horiz-adv-x="1024" d="M150 1145q64 116 119 161.5t122 45.5q30 0 68 -22t67.5 -49t63.5 -49t57 -22q40 0 68 29t71 115l76 -33q-62 -127 -113.5 -171t-115.5 -44q-33 0 -72.5 22t-69.5 48.5t-64 48.5t-56 22q-38 0 -71.5 -30.5t-82.5 -112.5z" />
<glyph unicode="&#x2000;" horiz-adv-x="870" />
<glyph unicode="&#x2001;" horiz-adv-x="1741" />
<glyph unicode="&#x2002;" horiz-adv-x="870" />
<glyph unicode="&#x2003;" horiz-adv-x="1741" />
<glyph unicode="&#x2004;" horiz-adv-x="580" />
<glyph unicode="&#x2005;" horiz-adv-x="435" />
<glyph unicode="&#x2006;" horiz-adv-x="290" />
<glyph unicode="&#x2007;" horiz-adv-x="290" />
<glyph unicode="&#x2008;" horiz-adv-x="217" />
<glyph unicode="&#x2009;" horiz-adv-x="348" />
<glyph unicode="&#x200a;" horiz-adv-x="96" />
<glyph unicode="&#x2010;" horiz-adv-x="694" d="M96 469l35 119h473l-35 -119h-473z" />
<glyph unicode="&#x2011;" horiz-adv-x="694" d="M96 469l35 119h473l-35 -119h-473z" />
<glyph unicode="&#x2012;" horiz-adv-x="694" d="M96 469l35 119h473l-35 -119h-473z" />
<glyph unicode="&#x2013;" horiz-adv-x="1024" d="M68 465v121h888v-121h-888z" />
<glyph unicode="&#x2014;" horiz-adv-x="2048" d="M68 465v121h1912v-121h-1912z" />
<glyph unicode="&#x2018;" horiz-adv-x="419" d="M190 1010q70 135 140.5 226t230.5 251l105 -21q-135 -160 -201 -256t-113 -200h-162z" />
<glyph unicode="&#x2019;" horiz-adv-x="419" d="M145 1018q134 162 200 258.5t112 198.5h164q-72 -134 -143 -226t-230 -252z" />
<glyph unicode="&#x201a;" horiz-adv-x="419" d="M-197 -207q135 162 200.5 259t109.5 198h166q-71 -133 -142 -224.5t-231 -252.5z" />
<glyph unicode="&#x201c;" horiz-adv-x="731" d="M190 1010q70 135 140.5 226t230.5 251l105 -21q-135 -160 -201 -256t-113 -200h-162zM500 1010q73 136 143 227t229 250l105 -21q-135 -159 -200.5 -255.5t-112.5 -200.5h-164z" />
<glyph unicode="&#x201d;" horiz-adv-x="731" d="M147 1018q133 160 198 257t112 200h166q-74 -136 -145 -227.5t-228 -250.5zM457 1018q133 158 198.5 255.5t112.5 201.5h166q-74 -136 -145 -227.5t-228 -250.5z" />
<glyph unicode="&#x201e;" horiz-adv-x="739" d="M-195 -207q133 160 198 257t112 200h166q-74 -135 -144.5 -226.5t-228.5 -250.5zM115 -207q133 158 198.5 255.5t112.5 201.5h164q-72 -135 -142.5 -226t-228.5 -251z" />
<glyph unicode="&#x2022;" horiz-adv-x="708" d="M104 461q0 104 73.5 177t176.5 73t176.5 -73t73.5 -177q0 -103 -73.5 -175.5t-176.5 -72.5t-176.5 72.5t-73.5 175.5z" />
<glyph unicode="&#x2026;" horiz-adv-x="1228" d="M18 80q0 42 31 72t74 30t72.5 -29.5t29.5 -72.5t-29.5 -73t-72.5 -30t-74 30t-31 73zM424 80q0 43 30.5 72.5t73.5 29.5q42 0 72.5 -30t30.5 -72t-30.5 -72.5t-72.5 -30.5q-43 0 -73.5 30t-30.5 73zM827 80q0 42 31 72t74 30q41 0 70.5 -29.5t29.5 -72.5t-29.5 -73 t-70.5 -30q-43 0 -74 30t-31 73z" />
<glyph unicode="&#x202f;" horiz-adv-x="348" />
<glyph unicode="&#x2039;" horiz-adv-x="561" d="M57 461l11 39l428 370l120 -32l-401 -375l191 -416l-113 -33z" />
<glyph unicode="&#x203a;" horiz-adv-x="561" d="M-72 47l402 375l-191 416l113 32l235 -446l-12 -39l-428 -371z" />
<glyph unicode="&#x205f;" horiz-adv-x="435" />
<glyph unicode="&#x20ac;" d="M78 510l35 111h77q14 87 43 186h-100l39 111h100q44 109 105 198.5t138 158.5t174 107.5t204 38.5q130 0 242 -43l-37 -127q-104 43 -207 43q-157 0 -276 -102.5t-195 -273.5h473l-35 -111h-479q-29 -99 -43 -186h502l-35 -111h-481q-3 -47 -3 -100q0 -137 61.5 -219 t180.5 -82q145 0 273 67l-13 -145q-58 -25 -135.5 -38t-140.5 -13q-180 0 -275.5 115t-95.5 317q0 65 4 98h-100z" />
<glyph unicode="&#x2122;" horiz-adv-x="2535" d="M104 1217h850l-6 -130h-348v-919h-141v919h-348zM1147 168l76 1049h145l324 -785q24 -69 28 -90h9q14 58 28 90l342 785h146l65 -1049l-137 -4l-37 733q-4 46 -4 86h-8q-13 -54 -27 -82l-319 -733h-121l-297 725q-17 34 -29 90h-8q0 -68 -2 -88l-49 -733z" />
<glyph unicode="&#xe000;" horiz-adv-x="911" d="M0 0v911h911v-911h-911z" />
<glyph unicode="&#xfb01;" horiz-adv-x="1105" d="M-225 -371q130 14 221 124t154 347l184 684h-146l27 115h150l30 115q35 129 85 219.5t110 139t122 69.5t134 22l20 -123q-94 0 -155.5 -34.5t-114.5 -131.5t-98 -276h546l-237 -899h-133l207 784h-414l-188 -718q-133 -511 -461 -551zM973 1237q0 35 23.5 59.5t58.5 24.5 t59.5 -24.5t24.5 -59.5q0 -36 -24.5 -62t-59.5 -26t-58.5 26t-23.5 62z" />
<glyph unicode="&#xfb02;" horiz-adv-x="1126" d="M-225 -371q130 14 221 124t154 347l184 684h-146l27 115h150l30 115q29 106 70.5 185t87.5 128t103 79t111 41t118 11q145 0 336 -33l-377 -1425h-135l348 1323q-82 16 -160 16q-77 0 -131 -17t-105 -64t-90.5 -135t-72.5 -224h235l-31 -115h-235l-188 -718 q-133 -511 -461 -551z" />
</font>
</defs>
</svg>
