<?xml version="1.0" standalone="no"?>
<!DOCTYPE svg PUBLIC "-//W3C//DTD SVG 1.1//EN" "http://www.w3.org/Graphics/SVG/1.1/DTD/svg11.dtd" >
<svg xmlns="http://www.w3.org/2000/svg">
<metadata></metadata>
<defs>
<font id="absarasanstf-bolditalicRg" horiz-adv-x="1064" >
<font-face units-per-em="2048" ascent="1638" descent="-410" />
<missing-glyph horiz-adv-x="491" />
<glyph horiz-adv-x="2048" />
<glyph horiz-adv-x="2048" />
<glyph unicode="&#xd;" horiz-adv-x="2048" />
<glyph unicode=" "  horiz-adv-x="491" />
<glyph unicode="&#x09;" horiz-adv-x="491" />
<glyph unicode="&#xa0;" horiz-adv-x="491" />
<glyph unicode="!" horiz-adv-x="512" d="M49 113q0 59 40.5 99t98.5 40t97 -40t39 -99q0 -58 -38.5 -95.5t-97.5 -37.5t-99 37.5t-40 95.5zM133 373l217 1024h305l-333 -1024h-189z" />
<glyph unicode="&#x22;" horiz-adv-x="716" d="M281 1018l71 457h262l-174 -457h-159zM600 1018l72 457h262l-174 -457h-160z" />
<glyph unicode="#" d="M-33 0l172 356h-153l55 217h201l133 273h-168l57 217h215l162 334h162l-162 -334h186l162 334h162l-162 -334h144l-58 -217h-188l-133 -273h155l-57 -217h-203l-172 -356h-164l174 356h-186l-172 -356h-162zM406 573h184l133 273h-184z" />
<glyph unicode="$" d="M55 207l62 217q83 -37 178 -59.5t172 -22.5q87 0 127.5 37t40.5 88q0 37 -29.5 71t-73.5 59.5t-95.5 60t-95.5 70.5t-73.5 92t-29.5 122q0 123 86 211t245 115l39 153h117l-39 -143q14 2 41 2q30 0 59 -2l37 143h117l-41 -155q84 -9 164 -29l-49 -221q-190 55 -350 55 q-71 0 -108.5 -33t-37.5 -80q0 -32 29.5 -64t73.5 -58t95.5 -61t95.5 -70.5t73.5 -89.5t29.5 -115q0 -135 -89 -235.5t-267 -125.5l-41 -159h-117l41 153q-46 0 -98 6l-41 -159h-117l47 176q-109 20 -178 51z" />
<glyph unicode="%" horiz-adv-x="1490" d="M68 0l1255 1397h154l-1254 -1397h-155zM195 997q0 180 101 302t277 122q118 0 185 -73t67 -195q0 -114 -42.5 -208.5t-128.5 -154t-201 -59.5q-118 0 -188 71t-70 195zM397 1018q0 -68 19.5 -93.5t66.5 -25.5q64 0 102 77t38 179q0 61 -22 86t-66 25q-42 0 -74.5 -39.5 t-48 -95t-15.5 -113.5zM727 246q0 180 101.5 302t277.5 122q118 0 185 -73.5t67 -195.5q0 -113 -42.5 -207.5t-129 -154t-201.5 -59.5q-118 0 -188 71t-70 195zM930 266q0 -68 19.5 -93.5t66.5 -25.5q64 0 101.5 77t37.5 179q0 61 -22 86t-66 25q-42 0 -74 -39.5t-47.5 -95 t-15.5 -113.5z" />
<glyph unicode="&#x26;" horiz-adv-x="1538" d="M59 399q0 145 70 281t195.5 223.5t271.5 87.5q109 0 160 -53.5t51 -126.5q0 -56 -33 -102l295 75q-10 125 -84 226.5t-162 146.5l224 121q105 -56 181 -169t89 -259l180 47v-174l-182 -47q-18 -145 -85 -273.5t-167.5 -221.5t-233.5 -147t-278 -54q-131 0 -227.5 31 t-153.5 88.5t-84 131.5t-27 168zM336 438q0 -243 260 -243q169 0 295.5 115t165.5 298l-617 -157l-20 159q96 20 152.5 58t56.5 92q0 29 -17.5 44t-44.5 15q-60 0 -114.5 -57.5t-85.5 -145.5t-31 -178z" />
<glyph unicode="'" horiz-adv-x="397" d="M281 1018l71 457h262l-174 -457h-159z" />
<glyph unicode="(" horiz-adv-x="671" d="M88 66q0 199 62 432q107 401 327.5 664.5t464.5 314.5l80 -181q-185 -74 -346 -289.5t-252 -555.5q-62 -225 -62 -408q0 -169 51.5 -287t139.5 -174l-145 -157q-153 61 -236.5 230.5t-83.5 410.5z" />
<glyph unicode=")" horiz-adv-x="671" d="M-324 -395q185 74 346 290t252 556q62 225 62 407q0 169 -51.5 287t-139.5 174l146 158q153 -61 236 -230.5t83 -410.5q0 -204 -61 -433q-54 -202 -141.5 -375.5t-192.5 -296.5t-222.5 -202t-236.5 -104z" />
<glyph unicode="*" horiz-adv-x="782" d="M182 1147l66 199l176 -95l41 33l-37 191h209l-37 -191l41 -33l176 95l66 -199l-187 -25l-20 -57l137 -131l-170 -123l-80 168h-61l-82 -168l-168 123l137 131l-20 57z" />
<glyph unicode="+" horiz-adv-x="1024" d="M78 379v223h315v352h240v-352h311v-223h-311v-356h-240v356h-315z" />
<glyph unicode="," horiz-adv-x="512" d="M-256 -356q88 98 152 181.5t101.5 148.5t56.5 107.5t36 92.5l272 -12q-52 -128 -146.5 -262t-272.5 -301z" />
<glyph unicode="-" horiz-adv-x="700" d="M96 393l54 203h454l-53 -203h-455z" />
<glyph unicode="." horiz-adv-x="512" d="M53 127q0 65 44.5 109.5t109.5 44.5q64 0 107.5 -44.5t43.5 -109.5q0 -64 -43 -105.5t-108 -41.5t-109.5 41.5t-44.5 105.5z" />
<glyph unicode="/" horiz-adv-x="751" d="M-172 0l932 1448h264l-934 -1448h-262z" />
<glyph unicode="0" d="M12 393q0 142 49 328q97 363 244.5 531.5t374.5 168.5q175 0 274 -104.5t99 -308.5q0 -137 -49 -320q-98 -365 -246.5 -536.5t-374.5 -171.5q-176 0 -273.5 104t-97.5 309zM299 356q0 -74 25.5 -106.5t78.5 -32.5q93 0 161 113t138 375q62 228 62 339q0 78 -27.5 109 t-83.5 31q-87 0 -153.5 -107.5t-137.5 -371.5q-63 -231 -63 -349z" />
<glyph unicode="1" d="M2 0l68 256h274l234 874l-277 -51l23 232l399 86h223l-305 -1141h266l-94 -256h-811z" />
<glyph unicode="2" d="M-72 0v246q194 135 315 223.5t215 166t141 133.5t69 106t22 104q0 164 -194 164q-147 0 -263 -64v287q157 55 347 55q201 0 321.5 -103t120.5 -280q0 -124 -54.5 -225.5t-187.5 -224.5t-401 -320h485l-82 -268h-854z" />
<glyph unicode="3" d="M-39 240q282 0 429 56.5t147 164.5q0 87 -53.5 115t-174.5 28h-114l53 250h268q152 60 152 170q0 69 -43 102t-119 33q-140 0 -234 -43v260q146 45 316 45q172 0 276.5 -84t104.5 -231q0 -121 -77 -216.5t-202 -137.5v-13q84 -25 131 -89.5t47 -157.5q0 -250 -229 -378.5 t-657 -133.5z" />
<glyph unicode="4" d="M-25 346l43 264l727 813l324 -20l-747 -815h251l68 248h270l-67 -248h137l-63 -242h-138l-94 -346h-270l94 346h-535z" />
<glyph unicode="5" d="M12 240q296 3 431 53.5t135 157.5q0 81 -57.5 118t-198.5 37q-145 0 -209 -6l284 797h709l-96 -264h-439l-106 -293h18q85 0 156.5 -19t128.5 -58t89 -104t32 -151q0 -249 -221.5 -388.5t-634.5 -139.5z" />
<glyph unicode="6" d="M16 420q0 195 85 375.5t227.5 313.5t336.5 217t404 95l41 -260q-234 -9 -421 -105.5t-291.5 -258t-104.5 -355.5q0 -109 40 -167t116 -58q87 0 137.5 72t50.5 184q0 85 -37 117.5t-98 32.5q-22 0 -62 -9l19 183q66 34 137 34q147 0 236.5 -96t89.5 -258q0 -223 -142 -360 t-364 -137q-196 0 -298 111.5t-102 328.5z" />
<glyph unicode="7" d="M-127 16l897 1121h-555l41 260h899l-49 -240l-946 -1169z" />
<glyph unicode="8" d="M35 311q0 109 52 206.5t146 156.5l185 -82q-68 -41 -103.5 -102.5t-35.5 -127.5q0 -69 39 -111t116 -42q91 0 139 45.5t48 136.5q0 45 -22.5 86.5t-58.5 75t-79.5 67.5t-87 73t-79.5 82.5t-58.5 104t-22.5 130.5q0 186 123.5 298.5t314.5 112.5q168 0 269.5 -83.5 t101.5 -225.5q0 -91 -43.5 -176.5t-118.5 -140.5l-186 67q108 76 108 201q0 65 -37.5 105t-101.5 40q-75 0 -118.5 -44.5t-43.5 -125.5q0 -47 23 -89.5t60 -77t81.5 -70t89 -76t81.5 -86.5t60 -110.5t23 -139.5q0 -125 -62.5 -219t-168 -142t-238.5 -48q-189 0 -292 91.5 t-103 239.5z" />
<glyph unicode="9" d="M-49 240q234 9 421 105.5t291.5 257.5t104.5 355q0 109 -40 167.5t-116 58.5q-87 0 -137.5 -72t-50.5 -184q0 -85 37 -117.5t98 -32.5q26 0 62 8l-19 -182q-68 -35 -137 -35q-147 0 -236.5 96.5t-89.5 258.5q0 223 142 360t364 137q196 0 297.5 -111.5t101.5 -328.5 q0 -195 -85 -375.5t-227 -313.5t-336 -217t-404 -95z" />
<glyph unicode=":" horiz-adv-x="512" d="M53 127q0 65 44.5 109.5t109.5 44.5q64 0 107.5 -44.5t43.5 -109.5q0 -64 -43 -105.5t-108 -41.5t-109.5 41.5t-44.5 105.5zM215 750q0 64 44.5 108.5t109.5 44.5q64 0 107.5 -44t43.5 -109q0 -64 -43 -106t-108 -42t-109.5 42t-44.5 106z" />
<glyph unicode=";" horiz-adv-x="512" d="M-246 -356q88 98 152 181.5t101.5 148.5t56.5 107.5t36 92.5l273 -12q-52 -127 -146.5 -261t-273.5 -302zM215 750q0 64 44.5 108.5t109.5 44.5q64 0 107.5 -44t43.5 -109q0 -64 -43 -106t-108 -42t-109.5 42t-44.5 106z" />
<glyph unicode="&#x3c;" horiz-adv-x="1024" d="M53 483l537 443h352l-543 -432l543 -463h-354z" />
<glyph unicode="=" horiz-adv-x="1024" d="M86 197v219h856v-219h-856zM86 586v217h856v-217h-856z" />
<glyph unicode="&#x3e;" horiz-adv-x="1024" d="M80 31l543 432l-543 463h354l535 -453l-537 -442h-352z" />
<glyph unicode="?" horiz-adv-x="704" d="M49 113q0 59 40.5 99t98.5 40t97 -40t39 -99q0 -58 -38.5 -95.5t-97.5 -37.5t-99 37.5t-40 95.5zM178 418q179 232 247.5 360.5t68.5 231.5q0 98 -58 149t-153 51q-60 0 -93 -8l33 205q59 12 123 12q109 0 197.5 -39t145 -123t56.5 -200q0 -92 -26 -172.5t-100.5 -200 t-221.5 -309.5z" />
<glyph unicode="@" horiz-adv-x="1746" d="M72 299q0 198 78.5 372.5t211 296.5t313 192.5t378.5 70.5q290 0 461.5 -154t171.5 -399q0 -144 -46.5 -267t-126.5 -207.5t-188.5 -132.5t-230.5 -48q-138 0 -203 16q0 49 10 94h-12l-168 -80q-26 -12 -36 -16t-24.5 -7t-33.5 -3q-82 0 -137.5 63t-55.5 174 q0 133 42.5 247.5t113.5 190.5t162 119t188 43q91 0 367 -49l-154 -534q-12 -41 -16 -86q14 -2 30 -2q150 0 245 131.5t95 337.5q0 189 -127.5 301t-349.5 112q-157 0 -300 -58.5t-248 -158.5t-167.5 -242t-62.5 -301q0 -219 117 -334.5t315 -115.5q140 0 248 41v-174 q-44 -15 -120 -25t-142 -10q-193 0 -330 80t-202.5 214t-65.5 308zM678 291q0 -21 6 -45l35 -21q118 23 205 49l110 388q-90 20 -123 20q-36 0 -75.5 -24.5t-75.5 -70t-59 -123.5t-23 -173z" />
<glyph unicode="A" horiz-adv-x="1253" d="M-88 0l833 1397h283l154 -1387l-285 -18l-33 362h-452l-207 -354h-293zM545 584h299l-29 319q-4 54 -4 158h-16q-21 -78 -68 -158z" />
<glyph unicode="B" horiz-adv-x="1245" d="M94 0l373 1397h139q172 10 258 10q181 0 280 -83t99 -237q0 -116 -67.5 -216.5t-186.5 -155.5l-4 -15q158 -92 158 -270q0 -201 -131.5 -320.5t-354.5 -119.5l-415 10h-148zM434 236q185 -19 320 -19q48 30 76 87t28 112q0 100 -61 150t-168 50h-97zM590 815h248 q63 29 100 93t37 128q0 156 -174 156q-79 0 -111 -4z" />
<glyph unicode="C" horiz-adv-x="1335" d="M170 483q0 216 89.5 411.5t241 332t337.5 194.5q115 -3 273 -30.5t257 -59.5l-65 -264q-78 27 -228 58.5t-239 37.5q-111 -66 -194.5 -178t-124 -232t-40.5 -231q0 -158 84 -221t256 -63q99 0 218 37.5t179 84.5l-18 -278q-200 -102 -461 -102q-167 0 -293 56.5 t-199 171.5t-73 275z" />
<glyph unicode="D" horiz-adv-x="1464" d="M94 0l373 1397h117q207 14 307 14q262 0 414.5 -142.5t152.5 -404.5q0 -119 -30.5 -241t-94 -236.5t-152 -203.5t-215 -143t-272.5 -54l-469 14h-131zM449 240q170 -17 370 -17q157 79 246.5 250.5t89.5 384.5q0 80 -24 141t-66 98t-95.5 55.5t-115.5 18.5q-74 0 -160 -8 z" />
<glyph unicode="E" horiz-adv-x="1208" d="M94 0l373 1397h817l-76 -254h-520l-82 -316h486l-70 -247h-483l-86 -326h608l-45 -254h-922z" />
<glyph unicode="F" horiz-adv-x="1116" d="M94 0l373 1397h793l-76 -252h-494l-108 -408h475l-72 -250h-471l-129 -487h-291z" />
<glyph unicode="G" horiz-adv-x="1443" d="M170 489q0 169 60 327t162 278.5t236 206.5t281 120q115 -6 268.5 -30.5t266.5 -57.5l-72 -266q-91 30 -245.5 62.5t-249.5 41.5q-122 -60 -214.5 -167t-139 -230.5t-46.5 -245.5q0 -157 82.5 -224.5t235.5 -67.5q84 0 159 28l86 322h291l-143 -543q-223 -63 -443 -63 q-144 0 -256.5 41.5t-180.5 113t-103 161.5t-35 193z" />
<glyph unicode="H" horiz-adv-x="1527" d="M94 0l373 1397h295l-148 -551h541l148 551h294l-372 -1397h-295l157 592h-540l-158 -592h-295z" />
<glyph unicode="I" horiz-adv-x="692" d="M94 0l373 1397h295l-373 -1397h-295z" />
<glyph unicode="J" horiz-adv-x="712" d="M-158 -139q120 5 189 46.5t94 135.5l362 1354h295l-368 -1379q-51 -190 -184 -304t-332 -124z" />
<glyph unicode="K" horiz-adv-x="1470" d="M94 0l373 1397h295l-373 -1397h-295zM623 655v140l628 614l322 -25l-658 -639l467 -727l-307 -26z" />
<glyph unicode="L" horiz-adv-x="1087" d="M94 0l373 1397h295l-303 -1133h592l-47 -264h-910z" />
<glyph unicode="M" horiz-adv-x="1802" d="M14 0l486 1397h327l43 -932q2 -41 2 -111h21q18 49 53 111l563 932h314l-264 -1397h-279l172 842q6 35 27 104h-19q-36 -83 -63 -129l-490 -817h-262l-31 838q-2 33 -2 108h-18q-6 -61 -21 -104l-282 -842h-277z" />
<glyph unicode="N" horiz-adv-x="1529" d="M94 0l371 1397h305l279 -774q18 -50 32 -117h15q13 78 28 135l203 756h272l-372 -1393l-226 -12l-325 903q-25 75 -35 119h-14q-8 -63 -27 -135l-235 -879h-271z" />
<glyph unicode="O" horiz-adv-x="1480" d="M170 578q0 116 36 236.5t104 228.5t158.5 193t209.5 135t246 50q110 0 201 -30.5t155 -85t108.5 -129.5t65.5 -164t21 -189q0 -117 -32 -236t-97 -228t-154.5 -193.5t-215.5 -135t-269 -50.5q-170 0 -292.5 77.5t-183.5 211t-61 309.5zM477 571q0 -164 68.5 -252 t191.5 -88q125 0 224 81t152.5 217.5t53.5 301.5q0 161 -73 249.5t-189 88.5q-121 0 -220 -83.5t-153.5 -220t-54.5 -294.5z" />
<glyph unicode="P" horiz-adv-x="1230" d="M94 0l373 1397h158q182 12 268 12q184 0 289.5 -98t105.5 -285q0 -120 -49 -220t-132.5 -166.5t-187.5 -107t-221 -53.5l-63 228q92 4 164.5 33.5t114.5 74t63.5 93.5t21.5 98q0 81 -41 128.5t-116 47.5q-74 0 -144 -4l-313 -1178h-291z" />
<glyph unicode="Q" horiz-adv-x="1472" d="M121 -39q222 18 401 82t294 153.5t192.5 203.5t110 227.5t32.5 228.5q0 140 -70 227.5t-190 87.5q-93 0 -176.5 -51.5t-139.5 -132t-89 -177t-33 -187.5q0 -118 58 -182t159 -64q39 0 75 8l-40 -197q-56 -18 -119 -18q-106 0 -190.5 36t-137.5 98t-80.5 141.5 t-27.5 170.5q0 82 24.5 173t69 180.5t114 171t153 144t192 99.5t225.5 37q162 0 285.5 -74.5t188 -202.5t64.5 -290q0 -296 -191 -545.5t-556 -412.5v-15q124 -33 243.5 -93.5t208.5 -143.5l-143 -166q-162 115 -411 188.5t-437 73.5h-39z" />
<glyph unicode="R" horiz-adv-x="1290" d="M94 0l373 1397h176q199 12 254 12q178 0 282.5 -92.5t104.5 -255.5q0 -149 -82 -271t-217 -176l268 -606l-299 -16l-225 534l-203 21l-145 -547h-287zM584 764l211 -16q92 25 149 96t57 162q0 86 -51 129t-143 43q-26 0 -115 -7z" />
<glyph unicode="S" horiz-adv-x="1050" d="M39 72l61 258q103 -53 206 -79t179 -26q79 0 118.5 39t39.5 98q0 43 -21 85.5t-55 79.5t-75.5 75t-82.5 79.5t-75 85.5t-55 100t-21 116q0 134 73.5 233.5t194 149t269.5 49.5q160 0 319 -33l-51 -260q-71 21 -157.5 33t-145.5 12q-112 0 -161.5 -34t-49.5 -101 q0 -33 21 -70t55 -73t75.5 -75.5t82.5 -85t75 -94t55 -110t21 -125.5q0 -126 -64.5 -223t-169.5 -146.5t-231 -49.5q-255 0 -430 92z" />
<glyph unicode="T" horiz-adv-x="1120" d="M219 1143l57 254h1086l-88 -254h-361l-305 -1143h-295l305 1143h-399z" />
<glyph unicode="U" horiz-adv-x="1458" d="M190 385q0 87 37 219l215 793h293l-227 -844q-14 -55 -14 -111q0 -95 52 -146.5t187 -51.5q123 0 193 56t108 202l232 895h288l-247 -912q-32 -117 -79.5 -206t-118.5 -158t-173.5 -105t-233.5 -36q-245 0 -378.5 107.5t-133.5 297.5z" />
<glyph unicode="V" horiz-adv-x="1243" d="M252 1389l283 14l67 -905q2 -29 2 -140h19q19 79 51 140l508 899h297l-799 -1397h-301z" />
<glyph unicode="W" horiz-adv-x="1998" d="M297 1389l281 16v-873q0 -68 -7 -126h19q19 84 53 147l463 844h301l18 -865q0 -81 -4 -126h21q17 86 49 147l451 844h294l-780 -1397h-291l-12 913q0 35 8 113h-20q-21 -59 -49 -113l-490 -913h-291z" />
<glyph unicode="X" horiz-adv-x="1314" d="M-94 0l657 743l-246 633l316 37l162 -479l385 463h348l-619 -692l260 -676l-311 -43l-182 528l-430 -514h-340z" />
<glyph unicode="Y" horiz-adv-x="1087" d="M229 1384l303 21l101 -496q12 -59 16 -98h21q17 41 57 98l348 488h309l-651 -871l-139 -526h-297l143 526z" />
<glyph unicode="Z" horiz-adv-x="1275" d="M-25 0l37 248l961 895h-668l43 254h1020l-14 -240l-969 -903h756l-21 -254h-1145z" />
<glyph unicode="[" horiz-adv-x="731" d="M-61 -526l524 1964h510l-64 -236h-223l-399 -1493h223l-64 -235h-507z" />
<glyph unicode="\" horiz-adv-x="751" d="M231 1448h232l153 -1448h-229z" />
<glyph unicode="]" horiz-adv-x="731" d="M-217 -526l63 235h224l399 1493h-223l63 236h508l-524 -1964h-510z" />
<glyph unicode="^" horiz-adv-x="1024" d="M121 555l424 610h231l133 -610l-194 -12l-94 422l-304 -422z" />
<glyph unicode="_" horiz-adv-x="1024" d="M0 0h1024v-203h-1024v203z" />
<glyph unicode="`" horiz-adv-x="1024" d="M260 1421h268l68 -403h-184z" />
<glyph unicode="a" horiz-adv-x="1030" d="M82 252q0 154 46 283.5t121.5 213.5t171.5 130.5t197 46.5q86 0 392 -54l-172 -647q-29 -114 -29 -225h-254q0 57 16 135h-12l-211 -129q-22 -14 -33.5 -19t-18.5 -6t-24 -1q-81 0 -135.5 70t-54.5 202zM350 293q0 -33 6 -57l35 -23q80 23 205 76l111 418q-87 22 -123 22 t-75.5 -28.5t-75.5 -80.5t-59.5 -138t-23.5 -189z" />
<glyph unicode="b" horiz-adv-x="1062" d="M63 33l371 1417l275 10l-185 -690h13l223 129q30 18 42.5 22.5t33.5 4.5q81 0 135.5 -70.5t54.5 -202.5q0 -124 -30.5 -232.5t-83 -188t-121.5 -137t-147 -86.5t-159 -29q-58 0 -137 12zM377 199l57 -15q33 -8 66 -8q41 0 85 28.5t83.5 80.5t64.5 138t25 189q0 34 -6 58 l-35 22q-135 -35 -230 -76z" />
<glyph unicode="c" horiz-adv-x="792" d="M82 309q0 139 46 257.5t121 195.5t170 120.5t195 43.5q128 0 193 -29l-47 -219q-71 33 -148 33q-125 0 -192.5 -100t-67.5 -257q0 -87 28.5 -117t84.5 -30q20 0 52.5 17t144.5 91l79 -155q-124 -85 -191 -123t-103 -47.5t-89 -9.5q-123 0 -199.5 94.5t-76.5 234.5z" />
<glyph unicode="d" horiz-adv-x="1028" d="M82 252q0 154 46.5 283.5t123.5 213.5t173.5 130.5t197.5 46.5q34 0 159 -19l142 543l274 10l-344 -1235q-29 -102 -29 -225h-254q0 52 17 135h-13l-227 -129q-32 -19 -43 -22.5t-33 -3.5q-81 0 -135.5 70t-54.5 202zM350 293q0 -33 6 -57l35 -23q127 36 221 76l111 418 q-87 22 -127 22q-41 0 -83.5 -28.5t-79 -80.5t-60 -138t-23.5 -189z" />
<glyph unicode="e" horiz-adv-x="888" d="M82 319q0 136 45.5 253t119 193t164.5 118.5t183 42.5q136 0 209.5 -62t73.5 -168q0 -146 -132 -232.5t-331 -86.5h-68q-2 -29 -2 -58q0 -62 30 -90t93 -28q39 0 89 23t181 100l76 -152q-163 -108 -257 -150t-163 -42q-135 0 -223 90t-88 249zM371 526h8q129 0 198.5 42 t69.5 118q0 41 -22 60.5t-58 19.5q-132 0 -196 -240z" />
<glyph unicode="f" horiz-adv-x="716" d="M-190 -268q42 5 74 15.5t67.5 35.5t63.5 64t56.5 102.5t51.5 150.5l158 596h-150l51 207h154l29 109q29 111 77.5 195t102 132.5t120 78.5t124 40t120.5 10l31 -221q-78 0 -124.5 -11.5t-87 -48.5t-67 -103.5t-53.5 -180.5h221l-55 -207h-223l-160 -630 q-67 -258 -195 -389.5t-317 -161.5z" />
<glyph unicode="g" horiz-adv-x="1052" d="M-88 -498l61 244q100 -53 236 -53q118 0 199 63t120 211l45 168h-16l-209 -129q-26 -17 -39 -21.5t-37 -4.5q-81 0 -135.5 70t-54.5 202q0 154 46.5 283.5t123.5 213.5t173.5 130.5t197.5 46.5q73 0 409 -54l-231 -878q-74 -279 -234 -410t-387 -131q-159 0 -268 49z M350 293q0 -33 6 -57l35 -23q127 36 221 76l111 418q-87 22 -127 22q-41 0 -83.5 -28.5t-79 -80.5t-60 -138t-23.5 -189z" />
<glyph unicode="h" horiz-adv-x="1081" d="M55 0l383 1450l275 10l-174 -663h6l217 106q47 23 110 23q67 0 117.5 -45t50.5 -103q0 -69 -22 -153l-107 -400q-30 -111 -30 -225h-267q0 107 45 283l95 370l-29 37q-121 -13 -231 -55l-164 -635h-275z" />
<glyph unicode="i" horiz-adv-x="573" d="M55 0l240 897l272 10l-241 -907h-271zM369 1239q0 54 36.5 91.5t90.5 37.5t91.5 -37.5t37.5 -91.5t-37.5 -91.5t-91.5 -37.5t-90.5 37.5t-36.5 91.5z" />
<glyph unicode="j" horiz-adv-x="585" d="M-219 -354q103 0 162.5 43.5t87.5 154.5l274 1053l275 10l-281 -1065q-28 -108 -74 -186t-103 -121.5t-117.5 -63.5t-129.5 -20q-41 0 -74 6zM389 1239q0 54 36.5 91.5t90.5 37.5t91.5 -37.5t37.5 -91.5t-37.5 -91.5t-91.5 -37.5t-90.5 37.5t-36.5 91.5z" />
<glyph unicode="k" horiz-adv-x="1044" d="M55 0l379 1450l275 10l-248 -942q72 31 123 57t84.5 51.5t53.5 46.5t29.5 48t12 49t2.5 57q0 40 -6 64l270 37q14 -61 14 -119q0 -56 -12 -97.5t-46.5 -87.5t-101 -93t-171.5 -101l221 -397l-279 -47l-221 432l-108 -418h-271z" />
<glyph unicode="l" horiz-adv-x="569" d="M55 0l385 1450l275 10l-389 -1460h-271z" />
<glyph unicode="m" horiz-adv-x="1525" d="M55 0l240 905l274 10l-32 -118h6l219 106q50 23 94 23q60 0 101.5 -42t41.5 -93v-9l224 121q45 23 98 23q60 0 112 -46t52 -102q0 -65 -23 -153l-106 -400q-31 -115 -31 -225h-266q0 103 45 283l94 370l-29 37q-94 -12 -188 -55l-166 -635h-266l168 653l-29 37 q-93 -11 -194 -57l-166 -633h-273z" />
<glyph unicode="n" d="M55 0l240 905l274 10l-32 -118h6l219 106q50 23 98 23q62 0 113 -45.5t51 -102.5q0 -65 -23 -153l-106 -400q-31 -115 -31 -225h-266q0 103 45 283l94 370l-28 37q-99 -11 -215 -57l-166 -633h-273z" />
<glyph unicode="o" horiz-adv-x="997" d="M82 352q0 134 48.5 246t125 181.5t166.5 108t178 38.5q163 0 262 -103t99 -270q0 -122 -44 -230.5t-116.5 -182.5t-166 -117t-192.5 -43q-169 0 -264.5 105.5t-95.5 266.5zM354 338q0 -76 32.5 -114t86.5 -38q56 0 106 53.5t79.5 141.5t29.5 186q0 76 -32.5 114t-86.5 38 q-82 0 -148.5 -112t-66.5 -269z" />
<glyph unicode="p" horiz-adv-x="1087" d="M-61 -518l278 1053l-113 -37l25 125l125 51l76 280l274 21l-47 -174h12l211 88q52 22 82 22q84 0 136.5 -62.5t52.5 -191.5q0 -155 -47 -285.5t-124 -214.5t-173.5 -130.5t-198.5 -46.5q-75 0 -162 20l-147 -555zM401 199q91 -23 121 -23q42 0 86 26t83.5 76t65 136.5 t25.5 193.5q0 30 -6 54l-35 22q-123 -17 -225 -49z" />
<glyph unicode="q" horiz-adv-x="1056" d="M82 252q0 154 46.5 283.5t123.5 213.5t173.5 130.5t197.5 46.5q66 0 413 -54l-374 -1433l-261 43l177 653h-9l-221 -129q-29 -17 -41.5 -21.5t-34.5 -4.5q-81 0 -135.5 70t-54.5 202zM350 293q0 -33 6 -57l35 -23q127 36 221 76l111 418q-87 22 -127 22 q-41 0 -83.5 -28.5t-79 -80.5t-60 -138t-23.5 -189z" />
<glyph unicode="r" horiz-adv-x="776" d="M41 0l238 905l262 10l-52 -182l7 -2q96 90 158 132t101.5 52.5t102.5 10.5l-61 -308l-131 23q-48 -6 -106.5 -28.5t-94.5 -47.5l-154 -565h-270z" />
<glyph unicode="s" horiz-adv-x="763" d="M37 33l57 207q126 -56 225 -56q51 0 76 19.5t25 50.5q0 28 -28.5 58t-69 59t-80.5 63t-68.5 82.5t-28.5 104.5q0 146 117 225.5t301 79.5q39 0 103 -6t92 -13l-56 -213q-116 29 -204 29q-49 0 -69.5 -13t-20.5 -44q0 -28 28 -59t68 -62t80 -67t68 -87.5t28 -109.5 q0 -137 -101.5 -219t-277.5 -82q-65 0 -141 13.5t-123 39.5z" />
<glyph unicode="t" horiz-adv-x="800" d="M123 696l51 207h160l53 201l266 33l-63 -234h233l-55 -207h-231l-78 -297q-21 -85 -21 -155l23 -4q109 46 213 108l69 -166q-149 -99 -230 -143t-112 -51.5t-82 -7.5q-81 0 -125 58t-44 138q0 53 20 131l100 389h-147z" />
<glyph unicode="u" horiz-adv-x="1069" d="M96 139q0 68 19 140l164 624h266l-166 -653l29 -37q99 11 215 57l165 633h273l-178 -676q-31 -122 -31 -227h-254q0 68 14 123h-10l-237 -119q-49 -24 -101 -24q-66 0 -117 47t-51 112z" />
<glyph unicode="v" horiz-adv-x="911" d="M147 891l271 20l31 -428v-151h16q31 92 74 176l196 395h228q-24 -152 -138 -338l-346 -563l-258 -22z" />
<glyph unicode="w" horiz-adv-x="1460" d="M170 893l260 18q6 -326 8 -469v-106h21q30 80 53 121l236 438h223l47 -442v-119h20q18 67 52 149l170 420h227q-26 -140 -127 -342l-279 -559l-237 -22l-53 479q-5 58 -5 125h-20q-19 -59 -53 -121l-256 -461l-252 -22z" />
<glyph unicode="x" horiz-adv-x="917" d="M-98 0l430 500l-166 381l278 41l95 -269l221 260l258 -18l-383 -444l180 -420l-272 -54l-113 318l-264 -315z" />
<glyph unicode="y" horiz-adv-x="964" d="M-43 -412q82 167 168 281l111 147l-64 873l270 22l25 -598h16l305 590h228q-18 -100 -79 -234.5t-155 -271.5l-417 -612q-118 -169 -189 -311z" />
<glyph unicode="z" horiz-adv-x="860" d="M70 25v206l481 449h-371l27 223h661v-209l-540 -504l463 -165l-105 -213z" />
<glyph unicode="{" horiz-adv-x="700" d="M-98 -285q0 53 32 116.5t77.5 122t91.5 113t78 105t32 82.5q0 42 -40 57t-146 15l67 247q129 0 181.5 29t52.5 96q0 57 -30 182t-30 191q0 94 38.5 167t104 116.5t145.5 65.5t169 22q99 0 178 -8l-39 -217q-66 4 -129 4q-90 0 -130 -28.5t-40 -94.5q0 -65 25.5 -192.5 t25.5 -188.5t-22.5 -106.5t-55 -71.5t-84 -43.5t-95.5 -24t-103 -10.5l-4 -21q264 -18 264 -184q0 -42 -31 -96.5t-75 -107.5t-87.5 -105t-74.5 -102.5t-31 -86.5q0 -84 129 -84q63 0 86 2l-53 -211q-63 -8 -141 -8q-67 0 -124.5 13.5t-106.5 42t-77 80.5t-28 122z" />
<glyph unicode="|" horiz-adv-x="661" d="M-68 -526l529 1974h250l-529 -1974h-250z" />
<glyph unicode="}" horiz-adv-x="700" d="M-186 -535l39 218q82 -5 129 -5q90 0 130 28.5t40 94.5q0 65 -26 192.5t-26 188.5t22.5 106.5t55.5 71.5t84.5 43.5t95.5 24t103 10.5l4 21q-264 18 -264 184q0 42 31 96.5t74.5 107.5t87.5 105t75 102.5t31 86.5q0 84 -129 84q-63 0 -86 -2l53 211q63 8 141 8 q67 0 124.5 -13.5t106.5 -42t77 -80.5t28 -122q0 -53 -32 -116.5t-77.5 -122t-91.5 -113t-78 -105t-32 -82.5q0 -42 40 -57t146 -15l-67 -247q-129 0 -181.5 -29t-52.5 -96q0 -57 30 -182t30 -191q0 -94 -38.5 -167t-104 -116.5t-145.5 -65.5t-169 -22q-119 0 -178 8z" />
<glyph unicode="~" horiz-adv-x="1024" d="M88 346q68 151 135.5 205.5t157.5 54.5q51 0 112.5 -27t116.5 -54t88 -27q39 0 67.5 27t65.5 100l148 -45q-37 -85 -71.5 -140t-71.5 -82.5t-70.5 -37t-79.5 -9.5q-51 0 -115 26.5t-119 53.5t-85 27q-41 0 -73 -24.5t-75 -98.5z" />
<glyph unicode="&#xa1;" horiz-adv-x="512" d="M-141 -494l334 1024h188l-217 -1024h-305zM190 791q0 58 38.5 95.5t97.5 37.5t99 -37.5t40 -95.5q0 -59 -40.5 -99.5t-98.5 -40.5t-97 40.5t-39 99.5z" />
<glyph unicode="&#xa2;" d="M113 614q0 165 77 302.5t215 218.5t310 84l57 202h115l-58 -209q121 -13 201 -36l-51 -211q-124 34 -231 34q-173 0 -270 -96.5t-97 -290.5q0 -206 217 -206q116 0 305 63l-24 -229q-166 -43 -318 -43h-8l-59 -217h-115l61 225q-327 54 -327 409z" />
<glyph unicode="&#xa3;" d="M-14 0l55 209q138 0 214.5 71.5t76.5 204.5q0 59 -13 129h-204l53 193h119q-17 96 -17 154q0 211 135.5 335.5t346.5 124.5q179 0 342 -63l-54 -234q-143 64 -303 64q-101 0 -147.5 -48.5t-46.5 -129.5q0 -55 22 -203h406l-56 -193h-323q4 -46 4 -65q0 -136 -43 -210.5 t-152 -125.5h496l-61 -213h-850z" />
<glyph unicode="&#xa4;" d="M-20 147l135 109q-27 68 -27 141q0 87 33.5 173t91.5 149l-90 112l176 121l86 -104q117 65 244 65q122 0 207 -65l127 110l127 -143l-136 -106q27 -68 27 -142q0 -181 -139 -327l88 -117l-178 -123l-80 115q-113 -58 -234 -58q-119 0 -207 62l-133 -113zM330 426 q0 -67 38.5 -111.5t104.5 -44.5q104 0 184 83t80 188q0 67 -41 111t-108 44q-104 0 -181 -82.5t-77 -187.5z" />
<glyph unicode="&#xa5;" d="M141 416l60 219h196l-200 762h297l98 -488q11 -53 16 -104h21q24 59 57 104l350 496l287 -19l-571 -751h196l-59 -219h-234l-110 -416h-281l115 416h-238z" />
<glyph unicode="&#xa6;" horiz-adv-x="661" d="M-68 -526l222 827h249l-221 -827h-250zM240 618l221 830h250l-222 -830h-249z" />
<glyph unicode="&#xa7;" d="M96 690q0 107 63.5 190.5t209.5 145.5q-23 48 -23 100q0 136 107.5 215.5t273.5 79.5q58 0 130 -9.5t118 -25.5l-47 -196q-118 39 -213 39q-125 0 -125 -78q0 -35 44.5 -67t107.5 -63t126 -69t107.5 -100t44.5 -141q0 -107 -63.5 -191t-208.5 -147q22 -46 22 -99 q0 -136 -107.5 -215t-273.5 -79q-150 0 -248 34l47 197q118 -39 213 -39q125 0 125 78q0 35 -44.5 67t-107.5 63t-126 69t-107.5 100t-44.5 141zM346 723q0 -25 11 -47.5t26 -39t44 -35t50 -29.5t59 -30t58 -30q176 61 176 166q0 30 -13.5 54.5t-42.5 46.5t-54 36.5 t-70.5 37.5t-69.5 36q-174 -61 -174 -166z" />
<glyph unicode="&#xa8;" horiz-adv-x="1024" d="M197 1241q0 54 36.5 90.5t90.5 36.5t90.5 -36.5t36.5 -90.5t-36.5 -92.5t-90.5 -38.5t-90.5 38.5t-36.5 92.5zM575 1241q0 54 36.5 90.5t90.5 36.5t90.5 -36.5t36.5 -90.5t-36.5 -92.5t-90.5 -38.5t-90.5 38.5t-36.5 92.5z" />
<glyph unicode="&#xa9;" horiz-adv-x="1554" d="M113 700q0 184 88 336.5t240.5 240t336.5 87.5q138 0 261 -51.5t211.5 -140t140 -211.5t51.5 -261q0 -184 -87.5 -336t-240 -239.5t-336.5 -87.5t-336.5 87.5t-240.5 239.5t-88 336zM225 700q0 -154 72.5 -282.5t199.5 -202.5t281 -74t280.5 74t198.5 202.5t72 282.5 t-72 282t-198.5 201.5t-280.5 73.5q-234 0 -393.5 -161t-159.5 -396zM414 694q0 99 33.5 177.5t90 126.5t128 73t151.5 25q152 0 248 -52l-43 -182q-88 51 -203 51q-194 0 -194 -213q0 -194 204 -194q111 0 207 55l35 -188q-104 -49 -246 -49q-181 0 -296 96.5t-115 273.5z " />
<glyph unicode="&#xaa;" horiz-adv-x="788" d="M305 1032q0 92 30 167.5t79.5 123t109 73t121.5 25.5q70 0 244 -30l-98 -375q-19 -70 -19 -137h-162q0 20 11 77h-9l-120 -67q-40 -21 -64 -21q-54 0 -88.5 41.5t-34.5 122.5zM475 1065q0 -15 4 -35l21 -12q63 15 135 45l59 217q-52 14 -73 14q-49 0 -97.5 -62.5 t-48.5 -166.5z" />
<glyph unicode="&#xab;" horiz-adv-x="972" d="M37 438l18 74l422 367l201 -50l-377 -374l170 -400l-197 -49zM420 438l18 74l422 367l201 -50l-377 -374l170 -400l-197 -49z" />
<glyph unicode="&#xac;" horiz-adv-x="1024" d="M61 518l64 230h905l-139 -517h-246l76 287h-660z" />
<glyph unicode="&#xad;" horiz-adv-x="700" d="M96 393l54 203h454l-53 -203h-455z" />
<glyph unicode="&#xae;" horiz-adv-x="1554" d="M113 700q0 184 88 336.5t240.5 240t336.5 87.5q138 0 261 -51.5t211.5 -140t140 -211.5t51.5 -261q0 -184 -87.5 -336t-240 -239.5t-336.5 -87.5t-336.5 87.5t-240.5 239.5t-88 336zM225 700q0 -154 72.5 -282.5t199.5 -202.5t281 -74t280.5 74t198.5 202.5t72 282.5 t-72 282t-198.5 201.5t-280.5 73.5q-234 0 -393.5 -161t-159.5 -396zM506 334v751h112q162 7 199 7q121 0 192.5 -55.5t71.5 -159.5q0 -70 -37.5 -127t-99.5 -82v-9l219 -292l-192 -45l-189 276h-94v-264h-182zM688 743h74q61 0 94 27.5t33 75.5q0 98 -131 98q-41 0 -70 -2 v-199z" />
<glyph unicode="&#xaf;" horiz-adv-x="1024" d="M217 1130l49 191h537l-49 -191h-537z" />
<glyph unicode="&#xb0;" horiz-adv-x="663" d="M244 1118q0 143 103.5 233.5t252.5 90.5q103 0 165 -58.5t62 -156.5q0 -148 -102.5 -236t-255.5 -88q-104 0 -164.5 59t-60.5 156zM420 1137q0 -41 24 -68t64 -27q64 0 103.5 52t39.5 118q0 39 -23.5 65t-62.5 26q-64 0 -104.5 -50t-40.5 -116z" />
<glyph unicode="&#xb1;" horiz-adv-x="1024" d="M131 0v221h764v-221h-764zM131 506v217h264v242h232v-242h268v-217h-268v-244h-232v244h-264z" />
<glyph unicode="&#xb2;" horiz-adv-x="880" d="M82 524v156q177 94 287 161t166.5 117.5t75 85.5t18.5 76q0 115 -154 115q-102 0 -186 -41v192q107 37 250 37q144 0 229.5 -71t85.5 -193q0 -121 -88 -223t-305 -219h325l-53 -193h-651z" />
<glyph unicode="&#xb3;" horiz-adv-x="880" d="M125 702q229 0 331.5 27.5t102.5 87.5q0 45 -27.5 61.5t-95.5 16.5h-143l39 172h186q109 12 109 94q0 78 -121 78q-108 0 -195 -41v188q94 35 254 35q129 0 202 -54.5t73 -154.5q0 -63 -39.5 -117t-126.5 -87v-7q119 -40 119 -174q0 -82 -47 -143.5t-133 -99t-201 -56 t-258 -18.5z" />
<glyph unicode="&#xb4;" horiz-adv-x="1024" d="M324 1018l251 403h297l-346 -403h-202z" />
<glyph unicode="&#xb5;" horiz-adv-x="1077" d="M-37 -549q0 96 46 333.5t114 494.5l164 624h266l-166 -653l29 -37q99 11 215 57l166 633h272l-178 -676q-31 -122 -31 -227h-282q0 48 10 106h-8q-105 -71 -150.5 -94.5t-85.5 -23.5q-11 0 -35 4l-53 -217q-16 -65 -16 -254z" />
<glyph unicode="&#xb6;" d="M121 811q0 173 81.5 313t224 218.5t318.5 78.5q187 0 371 -61l-276 -1032q-16 -60 -35.5 -107t-51.5 -94t-73.5 -77.5t-102 -50t-135.5 -19.5q-111 0 -190 32l41 146q64 -31 137 -31q108 0 170.5 57.5t91.5 167.5l226 840q-30 10 -62 10l-219 -831q-29 -109 -79 -151 t-128 -42l277 1036q-21 3 -31 3q-107 0 -197 -122.5t-90 -291.5q0 -60 27.5 -102t79.5 -42q7 0 16 3l-59 -156q-24 -8 -68 -8q-110 0 -187 83.5t-77 229.5z" />
<glyph unicode="&#xb7;" horiz-adv-x="466" d="M88 496q0 60 44 103.5t104 43.5t103.5 -43.5t43.5 -103.5t-43.5 -102t-103.5 -42t-104 42t-44 102z" />
<glyph unicode="&#xb8;" horiz-adv-x="1024" d="M270 -399l45 125q52 -27 117 -27q43 0 67.5 21.5t24.5 58.5q0 68 -82 71l50 91q93 0 154 -43.5t61 -130.5q0 -67 -39.5 -114t-100.5 -68t-135 -21q-37 0 -85.5 10.5t-76.5 26.5z" />
<glyph unicode="&#xb9;" horiz-adv-x="880" d="M111 524l51 193h213l133 497l-195 -36l29 176l258 53h180l-184 -690h176l-51 -193h-610z" />
<glyph unicode="&#xba;" horiz-adv-x="788" d="M315 1063q0 84 30.5 153.5t79.5 113t107.5 67.5t118.5 24q115 0 174.5 -51t59.5 -145q0 -153 -98.5 -257t-239.5 -104q-116 0 -174 53t-58 146zM498 1073q0 -80 73 -80q55 0 93 64.5t38 161.5q0 73 -75 73q-54 0 -91.5 -63t-37.5 -156z" />
<glyph unicode="&#xbb;" horiz-adv-x="972" d="M-51 55l377 375l-170 399l196 50l238 -433l-19 -73l-421 -367zM332 55l377 375l-170 399l196 50l238 -433l-19 -73l-422 -367z" />
<glyph unicode="&#xbc;" horiz-adv-x="2097" d="M111 524l51 193h213l133 497l-195 -36l29 176l258 53h180l-184 -690h176l-51 -193h-610zM438 0l1004 1397h241l-1001 -1397h-244zM1247 190l31 203l436 490h234l-480 -525h195l49 185h205l-49 -185h104l-45 -168h-104l-51 -190h-205l51 190h-371z" />
<glyph unicode="&#xbd;" horiz-adv-x="2097" d="M111 524l51 193h213l133 497l-195 -36l29 176l258 53h180l-184 -690h176l-51 -193h-610zM438 0l1004 1397h241l-1001 -1397h-244zM1217 0v156q177 94 287 161t166 117.5t74.5 85.5t18.5 76q0 115 -153 115q-103 0 -187 -41v192q107 37 250 37q144 0 230 -71t86 -193 q0 -120 -88.5 -222.5t-305.5 -219.5h326l-53 -193h-651z" />
<glyph unicode="&#xbe;" horiz-adv-x="2097" d="M125 702q229 0 331.5 27.5t102.5 87.5q0 45 -27.5 61.5t-95.5 16.5h-143l39 172h186q109 12 109 94q0 78 -121 78q-108 0 -195 -41v188q94 35 254 35q129 0 202 -54.5t73 -154.5q0 -63 -39.5 -117t-126.5 -87v-7q119 -40 119 -174q0 -82 -47 -143.5t-133 -99t-201 -56 t-258 -18.5zM438 0l1004 1397h241l-1001 -1397h-244zM1247 190l31 203l436 490h234l-480 -525h195l49 185h205l-49 -185h104l-45 -168h-104l-51 -190h-205l51 190h-371z" />
<glyph unicode="&#xbf;" horiz-adv-x="704" d="M-61 -154q0 92 26 172.5t100.5 200t221.5 309.5l219 -43q-179 -232 -247.5 -360t-68.5 -231q0 -98 58 -149.5t153 -51.5q60 0 93 8l-33 -205q-59 -12 -123 -12q-109 0 -197.5 39t-145 123t-56.5 200zM360 791q0 58 38.5 95.5t97.5 37.5t99 -37.5t40 -95.5 q0 -59 -40.5 -99.5t-98.5 -40.5t-97 40.5t-39 99.5z" />
<glyph unicode="&#xc0;" horiz-adv-x="1253" d="M-88 0l833 1397h283l154 -1387l-285 -18l-33 362h-452l-207 -354h-293zM545 584h299l-29 319q-4 54 -4 158h-16q-21 -78 -68 -158zM641 1710h274l103 -235h-197z" />
<glyph unicode="&#xc1;" horiz-adv-x="1253" d="M-88 0l833 1397h283l154 -1387l-285 -18l-33 362h-452l-207 -354h-293zM545 584h299l-29 319q-4 54 -4 158h-16q-21 -78 -68 -158zM762 1475l213 235h305l-305 -235h-213z" />
<glyph unicode="&#xc2;" horiz-adv-x="1253" d="M-88 0l833 1397h283l154 -1387l-285 -18l-33 362h-452l-207 -354h-293zM545 584h299l-29 319q-4 54 -4 158h-16q-21 -78 -68 -158zM557 1481l281 254h223l166 -254l-172 -13l-133 127l-185 -127z" />
<glyph unicode="&#xc3;" horiz-adv-x="1253" d="M-88 0l833 1397h283l154 -1387l-285 -18l-33 362h-452l-207 -354h-293zM545 584h299l-29 319q-4 54 -4 158h-16q-21 -78 -68 -158zM547 1516q57 113 117.5 161.5t144.5 48.5q48 0 131 -44t119 -44q34 0 52.5 19t47.5 76l115 -39q-47 -120 -106 -172t-148 -52 q-46 0 -133.5 43t-120.5 43q-34 0 -57 -18.5t-58 -71.5z" />
<glyph unicode="&#xc4;" horiz-adv-x="1253" d="M-88 0l833 1397h283l154 -1387l-285 -18l-33 362h-452l-207 -354h-293zM545 584h299l-29 319q-4 54 -4 158h-16q-21 -78 -68 -158zM573 1595q0 54 36.5 90.5t90.5 36.5t90.5 -36.5t36.5 -90.5t-36.5 -92.5t-90.5 -38.5t-90.5 38.5t-36.5 92.5zM952 1595q0 54 36.5 90.5 t90.5 36.5t90.5 -36.5t36.5 -90.5t-36.5 -92.5t-90.5 -38.5t-90.5 38.5t-36.5 92.5z" />
<glyph unicode="&#xc5;" horiz-adv-x="1253" d="M-88 0l823 1378q-55 43 -55 127q0 112 78.5 175t189.5 63q91 0 143 -45t52 -121q0 -68 -30.5 -119t-82.5 -80l152 -1368l-285 -18l-33 362h-452l-207 -354h-293zM545 584h299l-29 319q-4 54 -4 158h-16q-21 -78 -68 -158zM825 1524q0 -29 18.5 -48.5t51.5 -19.5 q44 0 71 32.5t27 78.5q0 29 -17 46t-48 17q-45 0 -74 -30.5t-29 -75.5z" />
<glyph unicode="&#xc6;" horiz-adv-x="1878" d="M-88 0l997 1397h1045l-76 -254h-520l-82 -316h485l-69 -247h-484l-86 -326h609l-45 -254h-916l156 588h-301l-410 -588h-303zM774 803h209l107 403h-35z" />
<glyph unicode="&#xc7;" horiz-adv-x="1335" d="M170 483q0 216 89.5 411.5t241 332t337.5 194.5q115 -3 273 -30.5t257 -59.5l-65 -264q-78 27 -228 58.5t-239 37.5q-111 -66 -194.5 -178t-124 -232t-40.5 -231q0 -158 84 -221t256 -63q99 0 218 37.5t179 84.5l-18 -278q-200 -102 -461 -102q-167 0 -293 56.5 t-199 171.5t-73 275zM389 -399l45 125q52 -27 117 -27q43 0 67.5 21.5t24.5 58.5q0 68 -82 71l49 91q93 0 154 -43.5t61 -130.5q0 -67 -39.5 -114t-100 -68t-134.5 -21q-37 0 -85.5 10.5t-76.5 26.5z" />
<glyph unicode="&#xc8;" horiz-adv-x="1208" d="M94 0l373 1397h817l-76 -254h-520l-82 -316h486l-70 -247h-483l-86 -326h608l-45 -254h-922zM590 1710h274l103 -235h-197z" />
<glyph unicode="&#xc9;" horiz-adv-x="1208" d="M94 0l373 1397h817l-76 -254h-520l-82 -316h486l-70 -247h-483l-86 -326h608l-45 -254h-922zM680 1475l213 235h305l-305 -235h-213z" />
<glyph unicode="&#xca;" horiz-adv-x="1208" d="M94 0l373 1397h817l-76 -254h-520l-82 -316h486l-70 -247h-483l-86 -326h608l-45 -254h-922zM530 1481l281 254h223l166 -254l-172 -13l-133 127l-184 -127z" />
<glyph unicode="&#xcb;" horiz-adv-x="1208" d="M94 0l373 1397h817l-76 -254h-520l-82 -316h486l-70 -247h-483l-86 -326h608l-45 -254h-922zM553 1595q0 54 36.5 90.5t90.5 36.5t90.5 -36.5t36.5 -90.5t-36.5 -92.5t-90.5 -38.5t-90.5 38.5t-36.5 92.5zM932 1595q0 54 36.5 90.5t90.5 36.5t90.5 -36.5t36.5 -90.5 t-36.5 -92.5t-90.5 -38.5t-90.5 38.5t-36.5 92.5z" />
<glyph unicode="&#xcc;" horiz-adv-x="692" d="M94 0l373 1397h295l-373 -1397h-295zM367 1710h274l102 -235h-196z" />
<glyph unicode="&#xcd;" horiz-adv-x="692" d="M94 0l373 1397h295l-373 -1397h-295zM492 1475l213 235h305l-305 -235h-213z" />
<glyph unicode="&#xce;" horiz-adv-x="692" d="M94 0l373 1397h295l-373 -1397h-295zM287 1481l280 254h224l165 -254l-172 -13l-133 127l-184 -127z" />
<glyph unicode="&#xcf;" horiz-adv-x="692" d="M94 0l373 1397h295l-373 -1397h-295zM305 1595q0 54 36.5 90.5t90.5 36.5t90.5 -36.5t36.5 -90.5t-36.5 -92.5t-90.5 -38.5t-90.5 38.5t-36.5 92.5zM684 1595q0 54 36.5 90.5t90.5 36.5t90.5 -36.5t36.5 -90.5t-36.5 -92.5t-90.5 -38.5t-90.5 38.5t-36.5 92.5z" />
<glyph unicode="&#xd0;" horiz-adv-x="1464" d="M94 0l166 625h-131l51 184h129l158 588h117q207 14 307 14q262 0 414.5 -142.5t152.5 -404.5q0 -119 -30.5 -241t-94 -236.5t-152 -203.5t-215 -143t-272.5 -54l-469 14h-131zM449 240q170 -17 370 -17q157 79 246.5 250.5t89.5 384.5q0 80 -24 141t-66 98t-95.5 55.5 t-115.5 18.5q-74 0 -160 -8l-94 -354h246l-51 -184h-244z" />
<glyph unicode="&#xd1;" horiz-adv-x="1529" d="M94 0l371 1397h305l279 -774q18 -50 32 -117h15q13 78 28 135l203 756h272l-372 -1393l-226 -12l-325 903q-25 75 -35 119h-14q-8 -63 -27 -135l-235 -879h-271zM709 1516q57 113 117.5 161.5t144.5 48.5q48 0 131 -44t119 -44q34 0 52.5 19t47.5 76l115 -39 q-47 -120 -106 -172t-148 -52q-46 0 -133.5 43t-120.5 43q-34 0 -57 -18.5t-58 -71.5z" />
<glyph unicode="&#xd2;" horiz-adv-x="1480" d="M166 578q0 116 36 236.5t104 228.5t158.5 193t209.5 135t246 50q137 0 243.5 -46.5t172.5 -129t100 -189.5t34 -233q0 -117 -32 -236t-97 -228t-154.5 -193.5t-215.5 -135t-269 -50.5q-170 0 -292.5 77.5t-183 211t-60.5 309.5zM473 571q0 -164 68.5 -252t191.5 -88 q125 0 224 81t152.5 217.5t53.5 301.5q0 161 -73 249.5t-189 88.5q-121 0 -220 -83.5t-153.5 -220t-54.5 -294.5zM672 1710h274l103 -235h-197z" />
<glyph unicode="&#xd3;" horiz-adv-x="1480" d="M166 578q0 116 36 236.5t104 228.5t158.5 193t209.5 135t246 50q137 0 243.5 -46.5t172.5 -129t100 -189.5t34 -233q0 -117 -32 -236t-97 -228t-154.5 -193.5t-215.5 -135t-269 -50.5q-170 0 -292.5 77.5t-183 211t-60.5 309.5zM473 571q0 -164 68.5 -252t191.5 -88 q125 0 224 81t152.5 217.5t53.5 301.5q0 161 -73 249.5t-189 88.5q-121 0 -220 -83.5t-153.5 -220t-54.5 -294.5zM809 1475l213 235h305l-305 -235h-213z" />
<glyph unicode="&#xd4;" horiz-adv-x="1480" d="M166 578q0 116 36 236.5t104 228.5t158.5 193t209.5 135t246 50q137 0 243.5 -46.5t172.5 -129t100 -189.5t34 -233q0 -117 -32 -236t-97 -228t-154.5 -193.5t-215.5 -135t-269 -50.5q-170 0 -292.5 77.5t-183 211t-60.5 309.5zM473 571q0 -164 68.5 -252t191.5 -88 q125 0 224 81t152.5 217.5t53.5 301.5q0 161 -73 249.5t-189 88.5q-121 0 -220 -83.5t-153.5 -220t-54.5 -294.5zM571 1481l281 254h223l166 -254l-172 -13l-133 127l-184 -127z" />
<glyph unicode="&#xd5;" horiz-adv-x="1480" d="M166 578q0 116 36 236.5t104 228.5t158.5 193t209.5 135t246 50q137 0 243.5 -46.5t172.5 -129t100 -189.5t34 -233q0 -117 -32 -236t-97 -228t-154.5 -193.5t-215.5 -135t-269 -50.5q-170 0 -292.5 77.5t-183 211t-60.5 309.5zM473 571q0 -164 68.5 -252t191.5 -88 q125 0 224 81t152.5 217.5t53.5 301.5q0 161 -73 249.5t-189 88.5q-121 0 -220 -83.5t-153.5 -220t-54.5 -294.5zM633 1516q57 113 117.5 161.5t144.5 48.5q48 0 131 -44t119 -44q34 0 52.5 19t47.5 76l115 -39q-47 -120 -106 -172t-148 -52q-46 0 -133.5 43t-120.5 43 q-34 0 -57 -18.5t-58 -71.5z" />
<glyph unicode="&#xd6;" horiz-adv-x="1480" d="M170 578q0 116 36 236.5t104 228.5t158.5 193t209.5 135t246 50q110 0 201 -30.5t155 -85t108.5 -129.5t65.5 -164t21 -189q0 -117 -32 -236t-97 -228t-154.5 -193.5t-215.5 -135t-269 -50.5q-170 0 -292.5 77.5t-183.5 211t-61 309.5zM477 571q0 -164 68.5 -252 t191.5 -88q125 0 224 81t152.5 217.5t53.5 301.5q0 161 -73 249.5t-189 88.5q-121 0 -220 -83.5t-153.5 -220t-54.5 -294.5zM625 1595q0 54 36.5 90.5t90.5 36.5t90.5 -36.5t36.5 -90.5t-36.5 -92.5t-90.5 -38.5t-90.5 38.5t-36.5 92.5zM1004 1595q0 54 36 90.5t90 36.5 t90.5 -36.5t36.5 -90.5t-36.5 -92.5t-90.5 -38.5t-90 38t-36 93z" />
<glyph unicode="&#xd7;" horiz-adv-x="1024" d="M63 209l291 276l-288 277l163 158l285 -283l285 283l164 -158l-289 -277l291 -276l-166 -156l-285 281l-285 -281z" />
<glyph unicode="&#xd8;" horiz-adv-x="1480" d="M59 -88l230 260q-119 159 -119 406q0 116 36 236.5t104 228.5t158.5 193t209.5 135t246 50q220 0 360 -121l154 177h131l-217 -246q123 -159 123 -408q0 -117 -32 -236t-97 -228t-154.5 -193.5t-215.5 -135t-269 -50.5q-214 0 -351 118l-163 -186h-134zM477 571 q0 -87 23 -161l592 673q-71 86 -187 86q-121 0 -220 -83.5t-153.5 -220t-54.5 -294.5zM547 315q69 -84 190 -84q125 0 224 81t152.5 217.5t53.5 301.5q0 93 -24 160z" />
<glyph unicode="&#xd9;" horiz-adv-x="1458" d="M190 385q0 87 37 219l215 793h293l-227 -844q-14 -55 -14 -111q0 -95 52 -146.5t187 -51.5q123 0 193 56t108 202l232 895h288l-247 -912q-32 -117 -79.5 -206t-118.5 -158t-173.5 -105t-233.5 -36q-245 0 -378.5 107.5t-133.5 297.5zM723 1710h274l103 -235h-197z" />
<glyph unicode="&#xda;" horiz-adv-x="1458" d="M190 385q0 87 37 219l215 793h293l-227 -844q-14 -55 -14 -111q0 -95 52 -146.5t187 -51.5q123 0 193 56t108 202l232 895h288l-247 -912q-32 -117 -79.5 -206t-118.5 -158t-173.5 -105t-233.5 -36q-245 0 -378.5 107.5t-133.5 297.5zM858 1475l213 235h305l-305 -235 h-213z" />
<glyph unicode="&#xdb;" horiz-adv-x="1458" d="M190 385q0 87 37 219l215 793h293l-227 -844q-14 -55 -14 -111q0 -95 52 -146.5t187 -51.5q123 0 193 56t108 202l232 895h288l-247 -912q-32 -117 -79.5 -206t-118.5 -158t-173.5 -105t-233.5 -36q-245 0 -378.5 107.5t-133.5 297.5zM670 1481l280 254h224l165 -254 l-172 -13l-133 127l-184 -127z" />
<glyph unicode="&#xdc;" horiz-adv-x="1458" d="M190 385q0 87 37 219l215 793h293l-227 -844q-14 -55 -14 -111q0 -95 52 -146.5t187 -51.5q123 0 193 56t108 202l232 895h288l-247 -912q-32 -117 -79.5 -206t-118.5 -158t-173.5 -105t-233.5 -36q-245 0 -378.5 107.5t-133.5 297.5zM702 1595q0 54 36.5 90.5t90.5 36.5 t90.5 -36.5t36.5 -90.5t-36.5 -92.5t-90.5 -38.5t-90.5 38.5t-36.5 92.5zM1081 1595q0 54 36.5 90.5t90.5 36.5t90.5 -36.5t36.5 -90.5t-36.5 -92.5t-90.5 -38.5t-90.5 38.5t-36.5 92.5z" />
<glyph unicode="&#xdd;" horiz-adv-x="1087" d="M229 1384l303 21l101 -496q12 -59 16 -98h21q17 41 57 98l348 488h309l-651 -871l-139 -526h-297l143 526zM664 1475l213 235h305l-305 -235h-213z" />
<glyph unicode="&#xde;" horiz-adv-x="1230" d="M94 0l373 1397h293l-70 -258q75 6 131 6q184 0 290 -98t106 -285q0 -120 -49 -220t-132.5 -166.5t-187.5 -107t-221 -53.5l-64 227q92 4 164.5 33.5t114.5 74t64 93.5t22 98q0 81 -41.5 129t-116.5 48q-52 0 -139 -5l-244 -913h-293z" />
<glyph unicode="&#xdf;" horiz-adv-x="1130" d="M-233 -268q34 5 59.5 12t56 22t55.5 41t50.5 64.5t48.5 96t43 132.5l242 912q35 130 89.5 221.5t123.5 140t141 69.5t158 21q141 0 221 -64t80 -181q0 -67 -28.5 -132.5t-69 -116t-81.5 -95t-69.5 -85.5t-28.5 -73q0 -34 18.5 -74.5t45.5 -80t54 -81t45.5 -92.5 t18.5 -100q0 -135 -90.5 -222t-222.5 -87q-149 0 -240 43l39 206q96 -51 199 -51q38 0 61 20.5t23 53.5q0 25 -20 62t-48.5 78t-56.5 87t-48 103.5t-20 113.5q0 50 29 108t71 108t83.5 97t70.5 89.5t29 70.5q0 42 -23 65t-59 23q-30 0 -52 -5.5t-49.5 -27t-51 -59 t-50 -105.5t-51.5 -163l-217 -831q-68 -261 -197 -392t-313 -159z" />
<glyph unicode="&#xe0;" horiz-adv-x="1030" d="M82 252q0 154 46 283.5t121.5 213.5t171.5 130.5t197 46.5q86 0 392 -54l-172 -647q-29 -114 -29 -225h-254q0 57 16 135h-12l-211 -129q-22 -14 -33.5 -19t-18.5 -6t-24 -1q-81 0 -135.5 70t-54.5 202zM350 293q0 -33 6 -57l35 -23q80 23 205 76l111 418q-87 22 -123 22 t-75.5 -28.5t-75.5 -80.5t-59.5 -138t-23.5 -189zM451 1421h268l67 -403h-184z" />
<glyph unicode="&#xe1;" horiz-adv-x="1030" d="M82 252q0 154 46 283.5t121.5 213.5t171.5 130.5t197 46.5q86 0 392 -54l-172 -647q-29 -114 -29 -225h-254q0 57 16 135h-12l-211 -129q-22 -14 -33.5 -19t-18.5 -6t-24 -1q-81 0 -135.5 70t-54.5 202zM350 293q0 -33 6 -57l35 -23q80 23 205 76l111 418q-87 22 -123 22 t-75.5 -28.5t-75.5 -80.5t-59.5 -138t-23.5 -189zM522 1018l252 403h297l-346 -403h-203z" />
<glyph unicode="&#xe2;" horiz-adv-x="1030" d="M82 252q0 154 46 283.5t121.5 213.5t171.5 130.5t197 46.5q86 0 392 -54l-172 -647q-29 -114 -29 -225h-254q0 57 16 135h-12l-211 -129q-22 -14 -33.5 -19t-18.5 -6t-24 -1q-81 0 -135.5 70t-54.5 202zM315 1028l316 393h239l119 -393l-182 -12l-94 217l-215 -217z M350 293q0 -33 6 -57l35 -23q80 23 205 76l111 418q-87 22 -123 22t-75.5 -28.5t-75.5 -80.5t-59.5 -138t-23.5 -189z" />
<glyph unicode="&#xe3;" horiz-adv-x="1030" d="M82 252q0 154 46 283.5t121.5 213.5t171.5 130.5t197 46.5q86 0 392 -54l-172 -647q-29 -114 -29 -225h-254q0 57 16 135h-12l-211 -129q-22 -14 -33.5 -19t-18.5 -6t-24 -1q-81 0 -135.5 70t-54.5 202zM342 1108q59 141 110 189.5t126 48.5q45 0 135.5 -49.5 t128.5 -49.5q37 0 59 21t55 84l111 -47q-57 -136 -107.5 -187t-128.5 -51q-45 0 -136 49t-128 49t-60.5 -21t-53.5 -83zM350 293q0 -33 6 -57l35 -23q80 23 205 76l111 418q-87 22 -123 22t-75.5 -28.5t-75.5 -80.5t-59.5 -138t-23.5 -189z" />
<glyph unicode="&#xe4;" horiz-adv-x="1030" d="M82 252q0 154 46 283.5t121.5 213.5t171.5 130.5t197 46.5q86 0 392 -54l-172 -647q-29 -114 -29 -225h-254q0 57 16 135h-12l-211 -129q-22 -14 -33.5 -19t-18.5 -6t-24 -1q-81 0 -135.5 70t-54.5 202zM350 293q0 -33 6 -57l35 -23q80 23 205 76l111 418q-87 22 -123 22 t-75.5 -28.5t-75.5 -80.5t-59.5 -138t-23.5 -189zM373 1241q0 54 36.5 90.5t90.5 36.5t90.5 -36.5t36.5 -90.5t-36.5 -92.5t-90.5 -38.5t-90.5 38.5t-36.5 92.5zM752 1241q0 54 36.5 90.5t90.5 36.5t90.5 -36.5t36.5 -90.5t-36.5 -92.5t-90.5 -38.5t-90.5 38.5t-36.5 92.5z " />
<glyph unicode="&#xe5;" horiz-adv-x="1030" d="M82 252q0 154 46 283.5t121.5 213.5t171.5 130.5t197 46.5q86 0 392 -54l-172 -647q-29 -114 -29 -225h-254q0 57 16 135h-12l-211 -129q-22 -14 -33.5 -19t-18.5 -6t-24 -1q-81 0 -135.5 70t-54.5 202zM350 293q0 -33 6 -57l35 -23q80 23 205 76l111 418q-87 22 -123 22 t-75.5 -28.5t-75.5 -80.5t-59.5 -138t-23.5 -189zM496 1182q0 111 78.5 174t189.5 63q91 0 142.5 -45t51.5 -121q0 -113 -78.5 -175t-191.5 -62q-92 0 -142 45t-50 121zM641 1200q0 -29 18.5 -48t51.5 -19q44 0 71 32t27 78q0 29 -17.5 46.5t-48.5 17.5q-45 0 -73.5 -31 t-28.5 -76z" />
<glyph unicode="&#xe6;" horiz-adv-x="1386" d="M82 252q0 154 46 283.5t121.5 213.5t171.5 130.5t197 46.5q35 0 207 -29l-24 -86h10q53 58 131 86.5t150 28.5q132 0 207 -62.5t75 -167.5q0 -146 -132 -232.5t-331 -86.5h-53q-4 -20 -4 -58q0 -64 25 -91t86 -27q39 0 89 23t181 100l76 -152q-163 -108 -257 -150 t-163 -42q-193 0 -268 184h-9l-266 -158q-32 -19 -43 -22.5t-33 -3.5q-81 0 -135.5 70t-54.5 202zM350 293q0 -33 6 -57l35 -23q95 25 205 72v34q0 101 29 203.5t77 182.5q-94 24 -118 24q-36 0 -75.5 -28.5t-75.5 -80.5t-59.5 -138t-23.5 -189zM881 526h8q122 0 189 42.5 t67 117.5q0 40 -23 60t-57 20q-55 0 -104 -61t-80 -179z" />
<glyph unicode="&#xe7;" horiz-adv-x="792" d="M82 309q0 139 46 257.5t121 195.5t170 120.5t195 43.5q128 0 193 -29l-47 -219q-71 33 -148 33q-125 0 -192.5 -100t-67.5 -257q0 -87 28.5 -117t84.5 -30q20 0 52.5 17t144.5 91l79 -155q-124 -85 -191 -123t-103 -47.5t-89 -9.5q-123 0 -199.5 94.5t-76.5 234.5z M86 -399l45 125q52 -27 117 -27q43 0 67.5 21.5t24.5 58.5q0 68 -82 71l49 91q93 0 154 -43.5t61 -130.5q0 -67 -39.5 -114t-100 -68t-134.5 -21q-37 0 -85.5 10.5t-76.5 26.5z" />
<glyph unicode="&#xe8;" horiz-adv-x="888" d="M82 319q0 136 45.5 253t119 193t164.5 118.5t183 42.5q136 0 209.5 -62t73.5 -168q0 -146 -132 -232.5t-331 -86.5h-68q-2 -29 -2 -58q0 -62 30 -90t93 -28q39 0 89 23t181 100l76 -152q-163 -108 -257 -150t-163 -42q-135 0 -223 90t-88 249zM369 1421h268l68 -403h-185 zM371 526h8q129 0 198.5 42t69.5 118q0 41 -22 60.5t-58 19.5q-132 0 -196 -240z" />
<glyph unicode="&#xe9;" horiz-adv-x="888" d="M82 319q0 136 45.5 253t119 193t164.5 118.5t183 42.5q136 0 209.5 -62t73.5 -168q0 -146 -132 -232.5t-331 -86.5h-68q-2 -29 -2 -58q0 -62 30 -90t93 -28q39 0 89 23t181 100l76 -152q-163 -108 -257 -150t-163 -42q-135 0 -223 90t-88 249zM371 526h8q129 0 198.5 42 t69.5 118q0 41 -22 60.5t-58 19.5q-132 0 -196 -240zM469 1018l252 403h297l-346 -403h-203z" />
<glyph unicode="&#xea;" horiz-adv-x="888" d="M82 319q0 136 45.5 253t119 193t164.5 118.5t183 42.5q136 0 209.5 -62t73.5 -168q0 -146 -132 -232.5t-331 -86.5h-68q-2 -29 -2 -58q0 -62 30 -90t93 -28q39 0 89 23t181 100l76 -152q-163 -108 -257 -150t-163 -42q-135 0 -223 90t-88 249zM258 1028l315 393h240 l119 -393l-182 -12l-95 217l-215 -217zM371 526h8q129 0 198.5 42t69.5 118q0 41 -22 60.5t-58 19.5q-132 0 -196 -240z" />
<glyph unicode="&#xeb;" horiz-adv-x="888" d="M82 319q0 136 45.5 253t119 193t164.5 118.5t183 42.5q136 0 209.5 -62t73.5 -168q0 -146 -132 -232.5t-331 -86.5h-68q-2 -29 -2 -58q0 -62 30 -90t93 -28q39 0 89 23t181 100l76 -152q-163 -108 -257 -150t-163 -42q-135 0 -223 90t-88 249zM299 1241q0 54 36.5 90.5 t90.5 36.5t90.5 -36.5t36.5 -90.5t-36.5 -92.5t-90.5 -38.5t-90.5 38.5t-36.5 92.5zM371 526h8q129 0 198.5 42t69.5 118q0 41 -22 60.5t-58 19.5q-132 0 -196 -240zM678 1241q0 54 36.5 90.5t90.5 36.5t90.5 -36.5t36.5 -90.5t-36.5 -92.5t-90.5 -38.5t-90.5 38.5 t-36.5 92.5z" />
<glyph unicode="&#xec;" horiz-adv-x="573" d="M55 0l240 897l272 10l-241 -907h-271zM233 1421h269l67 -403h-184z" />
<glyph unicode="&#xed;" horiz-adv-x="573" d="M55 0l240 897l272 10l-241 -907h-271zM324 1018l251 403h297l-346 -403h-202z" />
<glyph unicode="&#xee;" horiz-adv-x="573" d="M55 0l240 897l272 10l-241 -907h-271zM154 1030l270 391h207l110 -391l-168 -12l-79 209l-179 -209z" />
<glyph unicode="&#xef;" horiz-adv-x="573" d="M55 0l240 897l272 10l-241 -907h-271zM174 1241q0 54 36.5 90.5t90.5 36.5t90.5 -36.5t36.5 -90.5t-36.5 -92.5t-90.5 -38.5t-90.5 38.5t-36.5 92.5zM553 1241q0 54 36.5 90.5t90.5 36.5t90.5 -36.5t36.5 -90.5t-36.5 -92.5t-90.5 -38.5t-90.5 38.5t-36.5 92.5z" />
<glyph unicode="&#xf0;" horiz-adv-x="993" d="M92 324q0 159 69.5 297.5t183 218.5t239.5 80q47 0 116 -15q-50 144 -190 221l-139 -135l-140 68l127 123q-77 17 -176 20l113 223q148 -3 264 -49l123 119l141 -63l-127 -123q133 -86 210 -225t77 -324q0 -167 -55 -315.5t-143.5 -248.5t-201 -158t-227.5 -58 q-128 0 -196 93.5t-68 250.5zM346 307q0 -59 25 -104l55 -13q90 47 156 134t96.5 185.5t30.5 199.5q-40 12 -86 12q-119 0 -198 -116t-79 -298z" />
<glyph unicode="&#xf1;" d="M55 0l240 905l274 10l-32 -118h6l219 106q50 23 98 23q62 0 113 -45.5t51 -102.5q0 -65 -23 -153l-106 -400q-31 -115 -31 -225h-266q0 103 45 283l94 370l-28 37q-99 -11 -215 -57l-166 -633h-273zM389 1108q59 141 110 189.5t126 48.5q45 0 135.5 -49.5t128.5 -49.5 q37 0 59.5 21t55.5 84l110 -47q-57 -136 -107 -187t-128 -51q-45 0 -137 49t-128 49q-37 0 -60.5 -21t-53.5 -83z" />
<glyph unicode="&#xf2;" horiz-adv-x="997" d="M35 352q0 134 48.5 246t125 181.5t166.5 108t178 38.5q162 0 261 -102.5t99 -270.5q0 -122 -44 -230.5t-116 -182.5t-165.5 -117t-192.5 -43q-169 0 -264.5 105.5t-95.5 266.5zM307 338q0 -76 32.5 -114t86.5 -38q56 0 106 53.5t79.5 141.5t29.5 186q0 76 -32.5 114 t-86.5 38q-82 0 -148.5 -112t-66.5 -269zM350 1421h268l68 -403h-184z" />
<glyph unicode="&#xf3;" horiz-adv-x="997" d="M35 352q0 134 48.5 246t125 181.5t166.5 108t178 38.5q162 0 261 -102.5t99 -270.5q0 -122 -44 -230.5t-116 -182.5t-165.5 -117t-192.5 -43q-169 0 -264.5 105.5t-95.5 266.5zM307 338q0 -76 32.5 -114t86.5 -38q56 0 106 53.5t79.5 141.5t29.5 186q0 76 -32.5 114 t-86.5 38q-82 0 -148.5 -112t-66.5 -269zM453 1018l252 403h296l-346 -403h-202z" />
<glyph unicode="&#xf4;" horiz-adv-x="997" d="M35 352q0 134 48.5 246t125 181.5t166.5 108t178 38.5q162 0 261 -102.5t99 -270.5q0 -122 -44 -230.5t-116 -182.5t-165.5 -117t-192.5 -43q-169 0 -264.5 105.5t-95.5 266.5zM223 1028l316 393h239l119 -393l-182 -12l-94 217l-215 -217zM307 338q0 -76 32.5 -114 t86.5 -38q56 0 106 53.5t79.5 141.5t29.5 186q0 76 -32.5 114t-86.5 38q-82 0 -148.5 -112t-66.5 -269z" />
<glyph unicode="&#xf5;" horiz-adv-x="997" d="M35 352q0 134 48.5 246t125 181.5t166.5 108t178 38.5q162 0 261 -102.5t99 -270.5q0 -122 -44 -230.5t-116 -182.5t-165.5 -117t-192.5 -43q-169 0 -264.5 105.5t-95.5 266.5zM223 1108q59 141 110 189.5t126 48.5q45 0 135.5 -49.5t128.5 -49.5q37 0 59.5 21t55.5 84 l110 -47q-57 -136 -107 -187t-128 -51q-45 0 -136 49t-128 49t-61 -21t-54 -83zM307 338q0 -76 32.5 -114t86.5 -38q56 0 106 53.5t79.5 141.5t29.5 186q0 76 -32.5 114t-86.5 38q-82 0 -148.5 -112t-66.5 -269z" />
<glyph unicode="&#xf6;" horiz-adv-x="997" d="M35 352q0 134 48.5 246t125 181.5t166.5 108t178 38.5q162 0 261 -102.5t99 -270.5q0 -122 -44 -230.5t-116 -182.5t-165.5 -117t-192.5 -43q-169 0 -264.5 105.5t-95.5 266.5zM283 1241q0 54 36.5 90.5t90.5 36.5t90.5 -36.5t36.5 -90.5t-36.5 -92.5t-90.5 -38.5 t-90.5 38.5t-36.5 92.5zM307 338q0 -76 32.5 -114t86.5 -38q56 0 106 53.5t79.5 141.5t29.5 186q0 76 -32.5 114t-86.5 38q-82 0 -148.5 -112t-66.5 -269zM662 1241q0 54 36 90.5t90 36.5t90.5 -36.5t36.5 -90.5t-36.5 -92.5t-90.5 -38.5t-90 38t-36 93z" />
<glyph unicode="&#xf7;" horiz-adv-x="1024" d="M104 395v168h814v-168h-814zM352 160q0 68 45 115t111 47t110 -47t44 -115t-44 -113t-110 -45t-111 45.5t-45 112.5zM352 805q0 68 45 115t111 47t111 -47t45 -115q0 -67 -45 -112.5t-111 -45.5t-111 45.5t-45 112.5z" />
<glyph unicode="&#xf8;" horiz-adv-x="997" d="M29 -158l161 226q-112 103 -112 284q0 134 48.5 246t125 181.5t166.5 108t178 38.5q104 0 180 -43l133 186h95l-164 -229q116 -103 116 -287q0 -122 -44 -230.5t-116 -182.5t-165.5 -117t-192.5 -43q-103 0 -184 43l-129 -181h-96zM350 338q0 -31 2 -45l287 399 q-30 27 -74 27q-82 0 -148.5 -112t-66.5 -269zM391 213q30 -27 78 -27q56 0 106 53.5t79.5 141.5t29.5 186q0 21 -4 49z" />
<glyph unicode="&#xf9;" horiz-adv-x="1069" d="M96 139q0 68 19 140l164 624h266l-166 -653l29 -37q99 11 215 57l165 633h273l-178 -676q-31 -122 -31 -227h-254q0 68 14 123h-10l-237 -119q-49 -24 -101 -24q-66 0 -117 47t-51 112zM442 1421h269l67 -403h-184z" />
<glyph unicode="&#xfa;" horiz-adv-x="1069" d="M96 139q0 68 19 140l164 624h266l-166 -653l29 -37q99 11 215 57l165 633h273l-178 -676q-31 -122 -31 -227h-254q0 68 14 123h-10l-237 -119q-49 -24 -101 -24q-66 0 -117 47t-51 112zM582 1018l252 403h296l-346 -403h-202z" />
<glyph unicode="&#xfb;" horiz-adv-x="1069" d="M96 139q0 68 19 140l164 624h266l-166 -653l29 -37q99 11 215 57l165 633h273l-178 -676q-31 -122 -31 -227h-254q0 68 14 123h-10l-237 -119q-49 -24 -101 -24q-66 0 -117 47t-51 112zM344 1028l315 393h240l119 -393l-182 -12l-95 217l-215 -217z" />
<glyph unicode="&#xfc;" horiz-adv-x="1069" d="M96 139q0 68 19 140l164 624h266l-166 -653l29 -37q99 11 215 57l165 633h273l-178 -676q-31 -122 -31 -227h-254q0 68 14 123h-10l-237 -119q-49 -24 -101 -24q-66 0 -117 47t-51 112zM387 1241q0 54 36.5 90.5t90.5 36.5t90.5 -36.5t36.5 -90.5t-36.5 -92.5 t-90.5 -38.5t-90.5 38.5t-36.5 92.5zM766 1241q0 54 36.5 90.5t90.5 36.5t90.5 -36.5t36.5 -90.5t-36.5 -92.5t-90.5 -38.5t-90.5 38.5t-36.5 92.5z" />
<glyph unicode="&#xfd;" horiz-adv-x="964" d="M-43 -412q82 167 168 281l111 147l-64 873l270 22l25 -598h16l305 590h228q-18 -100 -79 -234.5t-155 -271.5l-417 -612q-118 -169 -189 -311zM500 1018l252 403h297l-347 -403h-202z" />
<glyph unicode="&#xfe;" horiz-adv-x="1087" d="M-61 -518l280 1053l-115 -37l25 125l127 51l207 776l274 10l-178 -659h12l209 88q52 22 82 22q84 0 136.5 -62.5t52.5 -191.5q0 -155 -47 -285.5t-124 -214.5t-173.5 -130.5t-198.5 -46.5q-75 0 -162 20l-147 -555zM401 199q91 -23 121 -23q42 0 86 26t83.5 76t65 136.5 t25.5 193.5q0 30 -6 54l-35 22q-123 -17 -225 -49z" />
<glyph unicode="&#xff;" horiz-adv-x="964" d="M-43 -412q82 167 168 281l111 147l-64 873l270 22l25 -598h16l305 590h228q-18 -100 -79 -234.5t-155 -271.5l-417 -612q-118 -169 -189 -311zM319 1241q0 54 36.5 90.5t90.5 36.5t90.5 -36.5t36.5 -90.5t-36.5 -92.5t-90.5 -38.5t-90.5 38.5t-36.5 92.5zM698 1241 q0 54 36.5 90.5t90.5 36.5t90.5 -36.5t36.5 -90.5t-36.5 -92.5t-90.5 -38.5t-90.5 38.5t-36.5 92.5z" />
<glyph unicode="&#x152;" horiz-adv-x="2031" d="M170 528q0 182 51.5 345.5t142.5 284.5t222.5 192t283.5 71q268 0 387 -194h9l45 170h796l-75 -254h-521l-81 -316h485l-70 -247h-483l-86 -326h608l-45 -254h-901l27 104h-9q-117 -124 -301 -124q-82 0 -152.5 17.5t-133 58.5t-106 103.5t-68.5 156t-25 212.5zM477 522 q0 -297 236 -297q97 0 178 62t130.5 160t76 211t26.5 223q0 155 -67 225t-183 70q-125 0 -217 -94t-136 -240t-44 -320z" />
<glyph unicode="&#x153;" horiz-adv-x="1439" d="M82 352q0 109 32.5 204t85.5 161.5t121 114.5t139.5 71t139.5 23q80 0 144 -32.5t98 -96.5q63 62 144 95.5t159 33.5q133 0 207.5 -62t74.5 -168q0 -98 -62.5 -171.5t-166.5 -110.5t-233 -37q-45 0 -68 2q-2 -20 -2 -60q0 -62 30 -90t93 -28q39 0 89 23t181 100l76 -152 q-163 -108 -257 -150t-163 -42q-73 0 -132 34.5t-97 94.5q-61 -64 -126 -96.5t-149 -32.5q-168 0 -263 106.5t-95 265.5zM354 338q0 -76 31.5 -114t85.5 -38q59 0 106 54.5t72 140.5t25 184q0 73 -29 113.5t-76 40.5q-84 0 -149.5 -112.5t-65.5 -268.5zM922 526h8 q129 0 198.5 42t69.5 118q0 41 -22 60.5t-58 19.5q-62 0 -115 -58.5t-81 -181.5z" />
<glyph unicode="&#x178;" horiz-adv-x="1087" d="M229 1384l303 21l101 -496q12 -59 16 -98h21q17 41 57 98l348 488h309l-651 -871l-139 -526h-297l143 526zM485 1595q0 54 36.5 90.5t90.5 36.5t90.5 -36.5t36.5 -90.5t-36.5 -92.5t-90.5 -38.5t-90.5 38.5t-36.5 92.5zM864 1595q0 54 36.5 90.5t90.5 36.5t90.5 -36.5 t36.5 -90.5t-36.5 -92.5t-90.5 -38.5t-90.5 38.5t-36.5 92.5z" />
<glyph unicode="&#x2c6;" horiz-adv-x="1024" d="M104 1028l316 393h239l119 -393l-182 -12l-94 217l-215 -217z" />
<glyph unicode="&#x2dc;" horiz-adv-x="1024" d="M133 1108q59 141 110 189.5t126 48.5q45 0 135.5 -49.5t128.5 -49.5q37 0 59.5 21t55.5 84l110 -47q-57 -136 -107 -187t-128 -51q-45 0 -137 49t-128 49q-37 0 -60.5 -21t-53.5 -83z" />
<glyph unicode="&#x2000;" horiz-adv-x="871" />
<glyph unicode="&#x2001;" horiz-adv-x="1743" />
<glyph unicode="&#x2002;" horiz-adv-x="871" />
<glyph unicode="&#x2003;" horiz-adv-x="1743" />
<glyph unicode="&#x2004;" horiz-adv-x="581" />
<glyph unicode="&#x2005;" horiz-adv-x="435" />
<glyph unicode="&#x2006;" horiz-adv-x="290" />
<glyph unicode="&#x2007;" horiz-adv-x="290" />
<glyph unicode="&#x2008;" horiz-adv-x="217" />
<glyph unicode="&#x2009;" horiz-adv-x="348" />
<glyph unicode="&#x200a;" horiz-adv-x="96" />
<glyph unicode="&#x2010;" horiz-adv-x="700" d="M96 393l54 203h454l-53 -203h-455z" />
<glyph unicode="&#x2011;" horiz-adv-x="700" d="M96 393l54 203h454l-53 -203h-455z" />
<glyph unicode="&#x2012;" horiz-adv-x="700" d="M96 393l54 203h454l-53 -203h-455z" />
<glyph unicode="&#x2013;" horiz-adv-x="1024" d="M68 393v203h888v-203h-888z" />
<glyph unicode="&#x2014;" horiz-adv-x="2048" d="M68 393v203h1912v-203h-1912z" />
<glyph unicode="&#x2018;" horiz-adv-x="456" d="M182 1010q69 153 128.5 236.5t219.5 240.5l205 -21q-122 -166 -170.5 -246t-101.5 -210h-281z" />
<glyph unicode="&#x2019;" horiz-adv-x="456" d="M186 1018q121 167 169.5 247.5t101.5 209.5h282q-71 -154 -131 -238t-219 -240z" />
<glyph unicode="&#x201a;" horiz-adv-x="460" d="M-150 -207q121 167 169.5 247.5t101.5 209.5h282q-71 -154 -131 -237.5t-219 -239.5z" />
<glyph unicode="&#x201c;" horiz-adv-x="854" d="M182 1010q69 153 128.5 236.5t219.5 240.5l205 -21q-122 -166 -170.5 -246t-101.5 -210h-281zM578 1010q71 154 131 237.5t219 239.5l205 -21q-123 -168 -171.5 -247.5t-101.5 -208.5h-282z" />
<glyph unicode="&#x201d;" horiz-adv-x="854" d="M186 1018q121 167 169.5 247.5t101.5 209.5h282q-71 -154 -131 -238t-219 -240zM582 1018q121 165 170 246t102 211h283q-50 -107 -84.5 -166t-95 -131t-171.5 -181z" />
<glyph unicode="&#x201e;" horiz-adv-x="831" d="M-150 -207q121 167 169.5 247.5t101.5 209.5h282q-71 -154 -131 -237.5t-219 -239.5zM246 -207q121 165 170 246t102 211h283q-71 -154 -131 -237.5t-219 -239.5z" />
<glyph unicode="&#x2022;" horiz-adv-x="716" d="M82 457q0 114 81 195t195 81t195.5 -81t81.5 -195t-81.5 -194.5t-195.5 -80.5t-195 80.5t-81 194.5z" />
<glyph unicode="&#x2026;" horiz-adv-x="1390" d="M53 127q0 65 44.5 109.5t109.5 44.5q64 0 107.5 -44.5t43.5 -109.5q0 -64 -43 -105.5t-108 -41.5t-109.5 41.5t-44.5 105.5zM494 127q0 65 44.5 109.5t108.5 44.5t108 -44.5t44 -109.5q0 -64 -43.5 -105.5t-108.5 -41.5t-109 41.5t-44 105.5zM932 127q0 65 44.5 109.5 t108.5 44.5t108 -44.5t44 -109.5q0 -64 -43.5 -105.5t-108.5 -41.5t-109 41.5t-44 105.5z" />
<glyph unicode="&#x202f;" horiz-adv-x="348" />
<glyph unicode="&#x2039;" horiz-adv-x="589" d="M37 438l18 74l422 367l201 -50l-377 -374l170 -400l-197 -49z" />
<glyph unicode="&#x203a;" horiz-adv-x="589" d="M-51 55l377 375l-170 399l196 50l238 -433l-19 -73l-421 -367z" />
<glyph unicode="&#x205f;" horiz-adv-x="435" />
<glyph unicode="&#x20ac;" d="M51 483l51 160h68q13 72 27 133h-84l53 160h84q93 221 259.5 353t383.5 132q124 0 252 -45l-45 -219q-98 35 -217 35q-115 0 -207 -66t-154 -190h439l-50 -160h-448q-21 -86 -27 -133h465l-49 -160h-428v-47q0 -120 52 -171.5t161 -51.5q64 0 154 27t137 61l-23 -254 q-61 -31 -154.5 -49t-170.5 -18q-208 0 -316 122t-108 336v45h-105z" />
<glyph unicode="&#x2122;" horiz-adv-x="2676" d="M66 1217h925l-12 -244h-315v-805h-267v805h-319zM1096 170l88 1047h336l235 -682q11 -32 14 -66h15q4 42 14 68l250 680h330l88 -1049h-283l-41 584q-2 16 -2 61h-14q-3 -29 -12 -61l-216 -584h-303l-194 584q-10 34 -12 61h-17q0 -45 -2 -61l-43 -590z" />
<glyph unicode="&#xe000;" horiz-adv-x="921" d="M0 0v922h922v-922h-922z" />
<glyph unicode="&#xfb01;" horiz-adv-x="1230" d="M-190 -268q42 5 74 15.5t67.5 35.5t63.5 64t56.5 102.5t51.5 150.5l158 596h-150l51 207h154l29 109q29 111 77.5 195t102 132.5t120 78.5t124 40t120.5 10l31 -221q-78 0 -124.5 -11.5t-87 -48.5t-67 -103.5t-53.5 -180.5h615l-240 -903h-270l186 696h-348l-160 -630 q-67 -258 -195 -389.5t-317 -161.5zM1026 1239q0 54 36.5 91.5t90.5 37.5t91.5 -37.5t37.5 -91.5t-37.5 -91.5t-91.5 -37.5t-90.5 37.5t-36.5 91.5z" />
<glyph unicode="&#xfb02;" horiz-adv-x="1251" d="M-190 -268q42 5 74 15.5t67.5 35.5t63.5 64t56.5 102.5t51.5 150.5l158 596h-150l51 207h154l29 109q117 452 544 452q97 0 240.5 -13t247.5 -30l-379 -1421h-270l327 1239q-78 12 -135 12q-77 0 -124 -12t-87.5 -50t-67 -105t-53.5 -181h221l-55 -207h-223l-160 -630 q-67 -258 -195 -389.5t-317 -161.5z" />
</font>
</defs>
</svg>
